<?xml version="1.0" encoding="UTF-8"?>
<svg width="255px" height="157px" viewBox="0 0 255 157" version="1.1" xmlns="http://www.w3.org/2000/svg" xmlns:xlink="http://www.w3.org/1999/xlink">
    <title>Lips/1</title>
    <g id="Lips/1" stroke="none" stroke-width="1" fill="none" fill-rule="evenodd">
        <g transform="translate(93.556956, 51.030546)" fill="#000000" fill-rule="nonzero">
            <path d="M92.0728167,8.2015841 C99.2918167,16.8235841 101.143817,28.1425841 112.219817,33.1135841 C116.732817,35.1385841 114.677817,40.8455841 109.353817,42.2955841 C106.158817,43.1665841 102.571817,42.9955841 99.1978167,42.7545841 C76.8138167,41.1715841 54.5158167,39.4075841 32.0798167,43.2465841 C24.3108167,44.5755841 16.0268167,43.0005841 7.98581674,42.5945841 C3.70081674,42.3775841 0.522816742,40.2085841 0.0398167419,35.7795841 C-0.443183258,31.3505841 3.56981674,29.3865841 6.55981674,29.3005841 C20.2858167,28.9085841 27.6208167,19.0725841 35.3048167,10.2165841 C42.1468167,2.3305841 50.2938167,0.826584103 60.1048167,0.727584103 C71.2758167,0.614584103 82.8088167,-3.2864159 92.0728167,8.2015841 Z" id="Path_4087"></path>
            <path d="M76.6288167,68.4975841 C66.6118167,69.6555841 57.1288167,71.8755841 48.6708167,62.2855841 C58.0208167,57.4275841 66.5018167,58.0335841 74.5708167,57.4735841 C77.5558167,57.2665841 81.4978167,59.3305841 82.1938167,63.1325841 C82.7298167,66.0485841 79.9618167,67.3195841 76.6288167,68.4975841 Z" id="Path_4088"></path>
        </g>
    </g>
</svg>