<?xml version="1.0" encoding="UTF-8"?>
<svg width="255px" height="157px" viewBox="0 0 255 157" version="1.1" xmlns="http://www.w3.org/2000/svg" xmlns:xlink="http://www.w3.org/1999/xlink">
    <title>Lips/10</title>
    <g id="Lips/10" stroke="none" stroke-width="1" fill="none" fill-rule="evenodd">
        <g transform="translate(0.000000, 1.000000)" fill-rule="nonzero">
            <path d="M159.766772,101.99113 C156.566772,99.2391304 153.781772,95.6261304 150.107772,93.8801304 C132.168772,85.3561304 118.688772,72.1521304 106.044772,57.0021304 C92.0647725,40.2511304 78.1667725,22.6421304 57.1567725,13.6021304 C49.0817725,10.1281304 40.8507725,5.82413039 32.3997725,13.6021304 C22.0707725,23.1071304 9.56177249,32.0281304 12.3997725,48.0651304 C14.8647725,62.0051304 23.3617725,72.7271304 34.9767725,81.9401304 C61.5287725,103.00013 93.1007725,108.42613 124.902772,112.64013 C136.845772,114.22413 150.259772,114.10713 159.766772,101.99113 Z" id="Color-11" fill="#FFFFFF"></path>
            <path d="M80.7317725,14.3211304 C91.1207725,20.6461304 98.5527725,29.3511304 104.815772,37.8651304 C118.674772,56.7041304 137.390772,68.5871304 156.922772,79.7651304 C160.322772,81.7101304 162.839772,84.5331304 166.006772,86.4031304 C173.315772,90.7181304 177.921772,96.8611304 176.835772,105.09713 C175.602772,114.45813 168.496772,118.84513 159.688772,121.64613 C136.888772,128.89413 114.538772,126.03513 91.8007725,121.08113 C65.1887691,115.372844 40.4175416,103.126247 19.7237725,85.4471304 C1.40977249,69.9551304 -4.58222751,47.0331304 3.56677249,27.1851304 C12.8557725,4.56013039 39.0457725,-6.42286961 60.9537725,3.90313039 C67.4207725,6.95513039 74.8807725,8.05813039 80.7317725,14.3211304 Z M159.766772,101.99113 C156.566772,99.2391304 153.781772,95.6261304 150.107772,93.8801304 C132.168772,85.3561304 118.688772,72.1521304 106.044772,57.0021304 C92.0647725,40.2511304 78.1667725,22.6421304 57.1567725,13.6021304 C49.0817725,10.1281304 40.8507725,5.82413039 32.3997725,13.6021304 C22.0707725,23.1071304 9.56177249,32.0281304 12.3997725,48.0651304 C14.8647725,62.0051304 23.3617725,72.7271304 34.9767725,81.9401304 C61.5287725,103.00013 93.1007725,108.42613 124.902772,112.64013 C136.845772,114.22413 150.259772,114.10713 159.766772,101.99113 Z" id="Path_4076" fill="#000000"></path>
        </g>
    </g>
</svg>