<?xml version="1.0" encoding="UTF-8"?>
<svg width="255px" height="157px" viewBox="0 0 255 157" version="1.1" xmlns="http://www.w3.org/2000/svg" xmlns:xlink="http://www.w3.org/1999/xlink">
    <title>Lips/11</title>
    <g id="Lips/11" stroke="none" stroke-width="1" fill="none" fill-rule="evenodd">
        <g transform="translate(28.560271, 23.459660)" fill-rule="nonzero">
            <path d="M46.5185013,63.3474708 C67.6495013,41.1584708 94.9595013,46.9104708 120.083501,49.5474708 C142.483501,51.8964708 154.503501,69.2674708 158.499501,91.4834708 C170.869501,89.2714708 177.316501,81.1664708 183.484501,73.2734708 C189.151501,66.0224708 189.550501,57.7834708 184.933501,49.4374708 C180.540501,41.4964708 173.065501,42.0854708 165.863501,42.3444708 C152.350501,42.8304708 141.393501,43.9644708 127.263501,34.2764708 C105.163501,19.1264708 77.5445013,10.1604708 48.5835013,14.1384708 C35.8385013,15.8884708 22.6775013,18.0194708 16.0535013,30.4674708 C7.80650129,45.9674708 21.5485013,72.5674708 39.7435013,77.1224708 C40.0221016,71.797268 42.4706589,66.8188358 46.5185013,63.3474708 L46.5185013,63.3474708 Z M93.1185013,82.4284708 C88.2025013,76.7844708 82.5325013,71.6164708 78.5825013,65.3624708 C74.6745013,59.1764708 70.2965013,59.9954708 65.7265013,62.7814708 C58.8355013,66.9814708 51.3985013,71.6414708 52.8685013,81.3534708 C53.9975013,88.8154708 60.7685013,86.3584708 65.3545013,86.4914708 C88.9475013,87.1794708 112.949501,83.4224708 135.609501,93.6054708 C137.651016,94.4522002 140.004612,93.9187131 141.481501,92.2744708 C140.192501,73.5344708 113.501501,56.4054708 95.0185013,62.5904708 C94.8065013,69.3014708 103.958501,76.1974708 93.1165013,82.4284708 L93.1185013,82.4284708 Z" id="Color-10" fill="#FFFFFF"></path>
            <path d="M0.574501285,32.5734708 C3.42950129,10.7614708 32.4585013,0.332470765 55.2515013,0.0144707653 C86.7355013,-0.424529235 116.205501,9.14347077 142.907501,26.1894708 C147.85047,29.5431026 153.996973,30.608987 159.780501,29.1154708 C179.090501,24.8894708 192.513501,29.4934708 197.888501,40.9404708 C208.201501,62.9074708 197.388501,84.7844708 186.194501,94.0914708 C165.722501,111.110471 142.487501,110.639471 118.956501,103.525471 C107.726529,99.9980894 95.864066,98.9536495 84.1905013,100.464471 C52.1055013,104.505471 24.9905013,94.6464708 7.61350129,66.5254708 C1.26341508,56.4217264 -1.23539002,44.3689588 0.574501285,32.5734708 L0.574501285,32.5734708 Z M46.5185013,63.3474708 C67.6495013,41.1584708 94.9595013,46.9104708 120.083501,49.5474708 C142.483501,51.8964708 154.503501,69.2674708 158.499501,91.4834708 C170.869501,89.2714708 177.316501,81.1664708 183.484501,73.2734708 C189.151501,66.0224708 189.550501,57.7834708 184.933501,49.4374708 C180.540501,41.4964708 173.065501,42.0854708 165.863501,42.3444708 C152.350501,42.8304708 141.393501,43.9644708 127.263501,34.2764708 C105.163501,19.1264708 77.5445013,10.1604708 48.5835013,14.1384708 C35.8385013,15.8884708 22.6775013,18.0194708 16.0535013,30.4674708 C7.80650129,45.9674708 21.5485013,72.5674708 39.7435013,77.1224708 C40.0221016,71.797268 42.4706589,66.8188358 46.5185013,63.3474708 L46.5185013,63.3474708 Z M93.1185013,82.4284708 C88.2025013,76.7844708 82.5325013,71.6164708 78.5825013,65.3624708 C74.6745013,59.1764708 70.2965013,59.9954708 65.7265013,62.7814708 C58.8355013,66.9814708 51.3985013,71.6414708 52.8685013,81.3534708 C53.9975013,88.8154708 60.7685013,86.3584708 65.3545013,86.4914708 C88.9475013,87.1794708 112.949501,83.4224708 135.609501,93.6054708 C137.651016,94.4522002 140.004612,93.9187131 141.481501,92.2744708 C140.192501,73.5344708 113.501501,56.4054708 95.0185013,62.5904708 C94.8065013,69.3014708 103.958501,76.1974708 93.1165013,82.4284708 L93.1185013,82.4284708 Z" id="Path_4075" fill="#000000"></path>
        </g>
    </g>
</svg>