<?xml version="1.0" encoding="UTF-8"?>
<svg width="255px" height="157px" viewBox="0 0 255 157" version="1.1" xmlns="http://www.w3.org/2000/svg" xmlns:xlink="http://www.w3.org/1999/xlink">
    <title>Lips/12</title>
    <g id="Lips/12" stroke="none" stroke-width="1" fill="none" fill-rule="evenodd">
        <g transform="translate(74.409924, 45.694492)" fill-rule="nonzero">
            <path d="M101.593849,19.3636387 C98.2938486,16.4866387 95.2088486,14.1846387 90.2188486,16.4876387 C82.3138486,20.1356387 74.0688486,23.0446387 65.8758486,26.3036387 C74.4018486,37.5896387 83.2548486,48.1896387 89.6528486,60.7306387 C93.8918486,69.0396387 101.479849,75.1556387 111.721849,71.2546387 C121.091849,67.6866387 120.959849,58.6006387 120.080849,50.4986387 C118.749849,38.2146387 113.212849,27.8946387 101.593849,19.3636387 Z" id="Color-9" fill="#FFFFFF"></path>
            <path d="M134.632849,47.4256387 C134.390849,55.7556387 135.232849,62.9066387 131.814849,69.8256387 C120.202849,93.3606387 93.4018486,89.8596387 79.4648486,70.1846387 C75.0728486,63.9846387 71.2088486,57.3846387 66.4998486,51.4386387 C51.8998486,33.0146387 32.3758486,24.3986387 9.1278486,24.1776387 C5.0278486,24.1386387 2.5708486,22.6046387 0.9888486,19.4316387 C-0.9291514,15.5866387 0.0298485996,11.9506387 3.1138486,8.99663871 C6.1198486,6.11763871 10.0548486,4.27063871 13.4458486,7.08663871 C24.4228486,16.2026387 36.5158486,13.3546387 48.6718486,11.3416387 C64.0928486,8.78763871 79.8568486,8.07763871 94.4998486,1.58063871 C101.627849,-1.58236129 108.799849,0.403638708 115.317849,3.99963871 C124.384849,8.99963871 132.927849,9.96163871 140.733849,1.30663871 C149.094849,6.07363871 152.973849,14.3626387 151.212849,21.6146387 C147.773849,35.7826387 137.340849,14.1306387 131.285849,25.6326387 C132.411849,31.4986387 135.840849,38.5796387 134.632849,47.4256387 Z M101.593849,19.3636387 C98.2938486,16.4866387 95.2088486,14.1846387 90.2188486,16.4876387 C82.3138486,20.1356387 74.0688486,23.0446387 65.8758486,26.3036387 C74.4018486,37.5896387 83.2548486,48.1896387 89.6528486,60.7306387 C93.8918486,69.0396387 101.479849,75.1556387 111.721849,71.2546387 C121.091849,67.6866387 120.959849,58.6006387 120.080849,50.4986387 C118.749849,38.2146387 113.212849,27.8946387 101.593849,19.3636387 Z" id="Path_4074" fill="#000000"></path>
        </g>
    </g>
</svg>