<?xml version="1.0" encoding="UTF-8"?>
<svg width="255px" height="157px" viewBox="0 0 255 157" version="1.1" xmlns="http://www.w3.org/2000/svg" xmlns:xlink="http://www.w3.org/1999/xlink">
    <title>Lips/13</title>
    <g id="Lips/13" stroke="none" stroke-width="1" fill="none" fill-rule="evenodd">
        <g transform="translate(107.895346, 63.431197)" fill-rule="nonzero">
            <path d="M45.7314262,23.6609333 C53.1374262,22.7899333 61.4824262,25.5449333 68.2894262,17.9999333 C50.3464262,15.5339333 33.4954262,12.4299333 14.1174262,18.2779333 C24.8234262,25.5499333 34.0124262,25.7089333 45.7314262,23.6609333 Z" id="Color-8" fill="#FFFFFF"></path>
            <path d="M50.9244262,35.0129333 C36.8074262,35.0259333 23.5094262,38.2829333 10.9474262,31.7129333 C4.96142616,28.5839333 -0.333573841,24.9579333 0.0164261586,17.5319333 C0.367426159,10.0729333 6.13042616,5.77993331 12.3114262,4.41093331 C31.0114262,0.267933307 49.9494262,-2.20506669 69.0114262,2.74893331 C77.0404262,4.83593331 84.0474262,8.96593331 83.9024262,17.8219333 C83.7504262,27.0569333 76.7484262,30.1129333 68.0184262,30.7689333 C62.6034262,31.1799333 57.3274262,33.4269333 50.9244262,35.0129333 Z M45.7314262,23.6609333 C53.1374262,22.7899333 61.4824262,25.5449333 68.2894262,17.9999333 C50.3464262,15.5339333 33.4954262,12.4299333 14.1174262,18.2779333 C24.8234262,25.5499333 34.0124262,25.7089333 45.7314262,23.6609333 Z" id="Path_4073" fill="#000000"></path>
        </g>
    </g>
</svg>