<?xml version="1.0" encoding="UTF-8"?>
<svg width="255px" height="157px" viewBox="0 0 255 157" version="1.1" xmlns="http://www.w3.org/2000/svg" xmlns:xlink="http://www.w3.org/1999/xlink">
    <title>Lips/14</title>
    <g id="Lips/14" stroke="none" stroke-width="1" fill="none" fill-rule="evenodd">
        <g transform="translate(82.088296, 39.510181)" fill-rule="nonzero">
            <path d="M86.8544765,61.5399496 C91.7414765,47.2559496 91.0034765,45.2989496 77.0904765,42.8289496 C66.9044765,41.0219496 57.7624765,36.5339496 48.0964765,33.4289496 C37.2104765,29.9339496 30.0784765,19.6349496 18.6234765,16.9149496 C12.6154765,46.6889496 52.3564765,73.4179496 86.8544765,61.5399496 Z" id="Color-7" fill="#FFFFFF"></path>
            <path d="M82.9714765,78.3179496 C56.2114765,82.6379496 34.0024765,74.2899496 15.5504765,57.1329496 C3.19047651,45.6389496 -1.47052349,29.7639496 0.397476505,12.9649496 C1.93047651,-0.813050426 9.13647651,-3.12905043 20.9404765,3.74494957 C41.0834765,15.4749496 61.3044765,27.4089496 86.2864765,24.5939496 C92.2134765,23.9259496 97.9864765,23.6199496 103.621477,21.2219496 C107.748477,19.4649496 113.021477,17.2979496 115.752477,23.2619496 C117.830477,27.7939496 115.318477,31.4319496 111.422477,34.0389496 C102.477477,40.0229496 97.4974765,45.9299496 107.428477,56.1719496 C111.933477,60.8179496 107.771477,67.0469496 102.628477,69.9469496 C96.7814765,73.2479496 90.2334765,75.3149496 82.9714765,78.3179496 Z M86.8534765,61.5439496 C91.7404765,47.2599496 91.0024765,45.3029496 77.0894765,42.8329496 C66.9034765,41.0259496 57.7614765,36.5379496 48.0954765,33.4329496 C37.2094765,29.9379496 30.0774765,19.6389496 18.6224765,16.9189496 C12.6154765,46.6889496 52.3564765,73.4179496 86.8544765,61.5399496 L86.8534765,61.5439496 Z" id="Path_4072" fill="#000000"></path>
        </g>
    </g>
</svg>