<?xml version="1.0" encoding="UTF-8"?>
<svg width="255px" height="157px" viewBox="0 0 255 157" version="1.1" xmlns="http://www.w3.org/2000/svg" xmlns:xlink="http://www.w3.org/1999/xlink">
    <title>Lips/15</title>
    <g id="Lips/15" stroke="none" stroke-width="1" fill="none" fill-rule="evenodd">
        <g transform="translate(56.208708, 37.029130)" fill-rule="nonzero">
            <path d="M26.8040642,48.797 C24.4100642,66.471 42.9100642,81.318 59.2150642,74.808 C54.8800642,58.972 38.4370642,57.321 26.8040642,48.797 Z" id="Color-6" fill="#FFFFFF"></path>
            <path d="M77.7800642,82.033 C52.0880642,95.643 28.5110642,89.184 16.0490642,65.767 C5.31506416,45.595 20.6370642,13.458 43.1350642,9.195 C63.7650642,5.287 81.0180642,6.053 94.9990642,31.748 C99.2588135,39.1410329 99.8210456,48.099388 96.5190642,55.967 C92.6900642,65.494 88.3350642,75.696 77.7800642,82.033 Z M26.8040642,48.797 C24.4100642,66.471 42.9100642,81.318 59.2150642,74.808 C54.8800642,58.972 38.4370642,57.321 26.8040642,48.797 L26.8040642,48.797 Z" id="Path_4070" fill="#000000"></path>
            <path d="M10.7930642,2.27373675e-13 C19.0190642,3.691 18.4840642,9.225 15.0280642,15.021 C12.4000642,19.427 8.47906416,22.144 3.32806416,18.928 C-1.47193584,15.928 -0.419935838,11.861 2.34806416,7.934 C4.48906416,4.899 5.38506416,0.68 10.7930642,2.27373675e-13 Z" id="Path_4071" fill="#000000"></path>
        </g>
    </g>
</svg>