<?xml version="1.0" encoding="UTF-8"?>
<svg width="255px" height="157px" viewBox="0 0 255 157" version="1.1" xmlns="http://www.w3.org/2000/svg" xmlns:xlink="http://www.w3.org/1999/xlink">
    <title>Lips/16</title>
    <g id="Lips/16" stroke="none" stroke-width="1" fill="none" fill-rule="evenodd">
        <g transform="translate(84.739424, 44.921438)" fill-rule="nonzero">
            <path d="M59.4203483,73.299692 C80.9153483,73.982692 90.5323483,66.710692 94.7453483,46.360692 C95.5253483,42.595692 95.9083483,38.460692 91.2453483,36.717692 C87.4253483,35.286692 84.6643483,37.695692 82.7343483,40.517692 C80.8653483,43.249692 79.8273483,46.533692 78.1413483,49.408692 C72.0303483,59.827692 67.8693483,72.986692 51.2513483,69.300692 C50.9550238,69.9791846 50.7054416,70.677146 50.5043483,71.389692 C52.1713483,74.228692 54.9153483,73.171692 59.4203483,73.299692 Z M42.6923483,62.558692 L39.9033483,51.729692 C20.8633483,44.682692 20.0543483,42.218692 30.2213483,21.605692 C24.8803483,21.005692 24.2853483,27.605692 19.0643483,28.160692 C11.3643483,28.983692 11.1113483,34.690692 13.3813483,41.280692 C16.3513483,49.901692 36.5313483,68.273692 44.4693483,67.880692 C47.6263483,67.728692 46.0793483,65.037692 42.6973483,62.558692 L42.6923483,62.558692 Z M50.3283483,50.034692 C51.6363483,58.761692 56.5803483,56.194692 60.5793483,52.760692 C63.6333483,50.139692 65.7333483,46.308692 67.9223483,42.805692 C69.6983483,39.965692 71.6223483,36.222692 68.0223483,33.898692 C64.4433483,31.589692 61.1673483,32.812692 59.0273483,37.230692 C57.0643483,41.289692 54.0903483,44.860692 50.3333483,50.034692 L50.3283483,50.034692 Z M48.5633483,24.168692 C44.2723483,29.068692 35.3813483,32.691692 43.8143483,42.794692 C47.5903483,35.828692 53.1653483,31.142692 48.5683483,24.168692 L48.5633483,24.168692 Z" id="Color-5" fill="#FFFFFF"></path>
            <path d="M92.5503483,22.576692 C108.184348,32.787692 110.542348,46.602692 99.3113483,60.376692 C95.8313483,64.645692 94.1113483,69.788692 90.1223483,73.899692 C77.5223483,86.892692 53.5843483,89.528692 38.2303483,79.452692 C27.3833483,72.333692 16.1303483,66.160692 8.31834834,55.104692 C-3.78165166,37.987692 -2.78165166,33.429692 11.9783483,18.148692 C18.3403483,11.562692 26.3273483,8.09669205 33.1783483,2.79769205 C43.5193483,-5.20230795 58.0673483,4.92269205 61.0463483,20.897692 C71.2033483,21.378692 81.4053483,21.861692 92.5503483,22.576692 Z M59.4253483,73.299692 C80.9203483,73.982692 90.5373483,66.710692 94.7503483,46.360692 C95.5303483,42.595692 95.9133483,38.460692 91.2503483,36.717692 C87.4303483,35.286692 84.6693483,37.695692 82.7393483,40.517692 C80.8703483,43.249692 79.8323483,46.533692 78.1463483,49.408692 C72.0353483,59.827692 67.8743483,72.986692 51.2563483,69.300692 C50.9600238,69.9791846 50.7104416,70.677146 50.5093483,71.389692 C52.1713483,74.228692 54.9153483,73.171692 59.4203483,73.299692 L59.4253483,73.299692 Z M42.6973483,62.558692 L39.9083483,51.729692 C20.8683483,44.682692 20.0593483,42.218692 30.2263483,21.605692 C24.8853483,21.005692 24.2903483,27.605692 19.0693483,28.160692 C11.3693483,28.983692 11.1163483,34.690692 13.3863483,41.280692 C16.3563483,49.901692 36.5363483,68.273692 44.4743483,67.880692 C47.6263483,67.728692 46.0793483,65.037692 42.6973483,62.558692 Z M50.3333483,50.034692 C51.6413483,58.761692 56.5853483,56.194692 60.5843483,52.760692 C63.6383483,50.139692 65.7383483,46.308692 67.9273483,42.805692 C69.7033483,39.965692 71.6273483,36.222692 68.0273483,33.898692 C64.4483483,31.589692 61.1723483,32.812692 59.0323483,37.230692 C57.0643483,41.289692 54.0903483,44.860692 50.3333483,50.034692 L50.3333483,50.034692 Z M48.5683483,24.168692 C44.2773483,29.068692 35.3863483,32.691692 43.8193483,42.794692 C47.5903483,35.828692 53.1653483,31.142692 48.5683483,24.168692 L48.5683483,24.168692 Z" id="Path_4069" fill="#000000"></path>
        </g>
    </g>
</svg>