<?xml version="1.0" encoding="UTF-8"?>
<svg width="255px" height="157px" viewBox="0 0 255 157" version="1.1" xmlns="http://www.w3.org/2000/svg" xmlns:xlink="http://www.w3.org/1999/xlink">
    <title>Lips/22</title>
    <g id="Lips/22" stroke="none" stroke-width="1" fill="none" fill-rule="evenodd">
        <g transform="translate(89.322231, 54.202154)" fill="#000000" fill-rule="nonzero" id="Path_4063">
            <path d="M98.8815417,32.2359761 C72.1455417,43.5279761 46.2295417,44.6609761 20.7885417,31.7129761 C14.3885417,28.4579761 8.88154167,29.3339761 2.18854167,32.4289761 C-0.754458332,22.8079761 -1.57145833,14.4739761 5.15554167,6.94297609 C7.08054167,4.78897609 9.04454167,1.88997609 12.5635417,3.15397609 C15.6915417,4.27697609 17.6135417,7.19497609 16.7505417,10.2539761 C14.7915417,17.1989761 20.2805417,17.9909761 24.1505417,19.9469761 C50.9675417,33.4959761 76.8225417,28.6359761 102.293542,15.7819761 C106.222542,13.7989761 106.206542,10.8009761 105.955542,7.23397609 C105.690542,3.47997609 106.800542,0.247976093 111.242542,0.0149760927 C115.773542,-0.224023907 118.852542,2.41497609 119.142542,6.68497609 C119.630542,13.8379761 119.275542,21.0469761 119.275542,29.4709761 C111.850542,26.9949761 105.520542,27.9739761 98.8815417,32.2359761 Z"></path>
        </g>
    </g>
</svg>