<?xml version="1.0" encoding="UTF-8"?>
<svg width="255px" height="157px" viewBox="0 0 255 157" version="1.1" xmlns="http://www.w3.org/2000/svg" xmlns:xlink="http://www.w3.org/1999/xlink">
    <title>Lips/23</title>
    <g id="Lips/23" stroke="none" stroke-width="1" fill="none" fill-rule="evenodd">
        <g transform="translate(64.047444, 37.099281)" fill="#000000" fill-rule="nonzero">
            <path d="M118.242328,58.5938496 C89.0113284,72.5808496 53.1033284,61.6878496 34.0423284,42.6418496 C31.7133284,40.3148496 30.2253284,37.0168496 28.8003284,33.9578496 C27.7403284,31.6808496 27.2003284,29.0158496 29.4373284,26.8708496 C31.6113284,24.7908496 34.1973284,25.1218496 36.5553284,26.2308496 C39.1973284,27.4738496 42.1553284,28.6738496 44.0673284,30.7308496 C56.1903284,43.7608496 72.1513284,47.0978496 88.7433284,49.6168496 C97.9963284,51.0218496 104.906328,45.2888496 112.967328,43.2068496 C118.228328,41.8488496 123.967328,34.2918496 127.918328,42.4558496 C131.212328,49.2818496 126.638328,55.3888496 118.242328,58.5938496 Z" id="Path_4061"></path>
            <path d="M2.5953284,20.3008496 C6.9173284,8.08684964 16.2623284,3.52884964 26.7543284,0.800849636 C31.6983284,-0.484150364 37.5143284,-0.943150364 39.6763284,5.13484964 C42.1393284,12.0578496 36.5413284,15.9908496 31.4703284,17.0348496 C24.1533284,18.5348496 19.5253284,21.7348496 16.0963284,28.2698496 C13.8453284,32.5588496 10.3713284,37.9858496 4.3503284,35.3978496 C-2.8106716,32.3178496 0.564328403,26.3708496 2.5953284,20.3008496 Z" id="Path_4062"></path>
        </g>
    </g>
</svg>