<?xml version="1.0" encoding="UTF-8"?>
<svg width="255px" height="157px" viewBox="0 0 255 157" version="1.1" xmlns="http://www.w3.org/2000/svg" xmlns:xlink="http://www.w3.org/1999/xlink">
    <title>Lips/24</title>
    <g id="Lips/24" stroke="none" stroke-width="1" fill="none" fill-rule="evenodd">
        <g transform="translate(82.648219, 69.037155)" fill="#000000" fill-rule="nonzero" id="Path_4060">
            <path d="M115.088554,29.8299751 C109.130554,26.5879751 103.896554,23.9299751 98.8175539,21.0019751 C91.1225539,16.5679751 83.8505539,15.3179751 74.9025539,18.9689751 C59.2345539,25.3629751 43.0665539,30.6759751 25.8905539,31.8439751 C13.2145539,32.7049751 0.547553933,23.6829751 0.112553933,13.1889751 C-0.0104460669,10.2169751 -0.624446067,6.98897506 3.12255393,5.74097506 C5.99855393,4.78497506 8.33255393,4.96297506 11.0755539,7.46897506 C26.7415539,21.7769751 28.9365539,21.9389751 47.3825539,12.1069751 C54.4735539,8.32797506 61.3755539,4.54197506 69.3145539,2.25797506 C86.2365539,-2.61102494 100.714554,0.25797506 113.666554,12.1949751 C118.243554,16.4149751 123.525554,18.6729751 129.826554,14.7629751 C132.745554,12.9519751 136.663554,11.8829751 139.052554,15.2939751 C141.986554,19.4839751 138.352554,22.2589751 135.682554,24.9629751 C130.127554,30.6009751 124.402554,35.6489751 115.088554,29.8299751 Z"></path>
        </g>
    </g>
</svg>