<?xml version="1.0" encoding="UTF-8"?>
<svg width="255px" height="157px" viewBox="0 0 255 157" version="1.1" xmlns="http://www.w3.org/2000/svg" xmlns:xlink="http://www.w3.org/1999/xlink">
    <title>Lips/25</title>
    <g id="Lips/25" stroke="none" stroke-width="1" fill="none" fill-rule="evenodd">
        <g transform="translate(80.868940, 48.601190)" fill-rule="nonzero">
            <path d="M23.5488324,15.7739402 C8.85483236,20.6929402 7.82583236,24.2229402 14.8898324,37.7359402 C19.0178324,45.6359402 25.3898324,51.0019402 31.9598324,56.2129402 C61.5988324,79.7329402 103.609832,69.3199402 123.689832,43.3979402 C129.92609,35.3835593 130.368374,24.2882861 124.789832,15.8029402 C119.366832,7.67694021 110.955832,12.3799402 103.937832,15.1459402 C99.4178324,16.9279402 94.7888324,16.5519402 90.1848324,17.1079402 C68.4968324,19.7299402 47.1618324,12.0609402 23.5488324,15.7739402 Z" id="Color-4" fill="#FFFFFF"></path>
            <path d="M57.0548324,80.5489402 C32.6828324,72.7019402 12.3608324,61.5489402 2.41483236,37.1079402 C-4.31016764,20.5839402 3.39083236,7.85294021 20.7908324,4.72594021 C40.1358324,1.24994021 58.8428324,4.61894021 77.6908324,7.15294021 C86.141108,8.29225055 94.7423446,7.15724772 102.607832,3.86494021 C118.756832,-2.56305979 129.867832,-0.890059792 136.452832,8.26494021 C143.985832,18.7359402 141.812832,42.7419402 132.566832,52.5149402 C112.298832,73.9339402 87.4778324,83.2369402 57.0548324,80.5489402 Z M23.5488324,15.7759402 C8.85483236,20.6949402 7.82583236,24.2249402 14.8898324,37.7379402 C19.0178324,45.6379402 25.3898324,51.0039402 31.9598324,56.2149402 C61.5988324,79.7349402 103.609832,69.3219402 123.689832,43.3999402 C129.92609,35.3855593 130.368374,24.2902861 124.789832,15.8049402 C119.366832,7.67894021 110.955832,12.3819402 103.937832,15.1479402 C99.4178324,16.9299402 94.7888324,16.5539402 90.1848324,17.1099402 C68.4968324,19.7299402 47.1618324,12.0609402 23.5488324,15.7739402 L23.5488324,15.7759402 Z" id="Path_4059" fill="#000000"></path>
        </g>
    </g>
</svg>