<?xml version="1.0" encoding="UTF-8"?>
<svg width="255px" height="157px" viewBox="0 0 255 157" version="1.1" xmlns="http://www.w3.org/2000/svg" xmlns:xlink="http://www.w3.org/1999/xlink">
    <title>Lips/26</title>
    <g id="Lips/26" stroke="none" stroke-width="1" fill="none" fill-rule="evenodd">
        <g transform="translate(71.672031, 54.909969)" fill-rule="nonzero">
            <path d="M101.919742,33.4101618 C103.140742,26.0681618 100.713742,21.9651618 92.6067418,23.0211618 C87.7727418,23.6511618 83.0767418,24.8871618 83.8067418,31.1571618 C84.8067418,39.7221618 91.6777418,36.4991618 96.5587418,36.8151618 C98.0117418,36.9081618 99.5477418,35.6641618 101.919742,33.4101618 Z M54.6307418,51.0101618 C56.3797418,50.3391618 59.0307418,51.0601618 59.3417418,47.7051618 C42.4417418,46.9341618 28.6227418,39.0121618 14.9617418,27.1721618 C21.1157418,42.1001618 37.3637418,51.8001618 54.6307418,51.0151618 L54.6307418,51.0101618 Z M124.705742,30.1281618 C127.360742,27.0921618 129.543742,23.3851618 126.085742,20.1981618 C122.774742,17.1451618 117.915742,17.7281618 114.215742,19.7931618 C108.389742,23.0451618 108.061742,28.1141618 111.036742,33.4711618 C115.928742,35.8211618 119.355742,32.4681618 124.705742,30.1331618 L124.705742,30.1281618 Z M54.8197418,30.9051618 C57.2517418,37.8111618 62.6507418,37.8141618 68.0897418,35.9211618 C71.9057418,34.5931618 71.6147418,30.5731618 71.3897418,27.1941618 C71.0617418,22.2941618 67.6737418,21.3311618 63.4897418,20.9941618 C57.3137418,20.4921618 55.2417418,23.8031618 54.8197418,30.9101618 L54.8197418,30.9051618 Z M42.8467418,26.1111618 C45.0197418,16.9321618 37.9977418,15.6461618 32.0267418,14.1511618 C26.7147418,12.8201618 22.3267418,14.2761618 20.8567418,22.7991618 C30.5297418,17.1451618 34.2127418,29.3011618 42.8467418,26.1161618 L42.8467418,26.1111618 Z" id="Color-3" fill="#FFFFFF"></path>
            <path d="M74.1877418,10.3031618 C89.0807418,13.2031618 102.241742,10.1181618 115.193742,5.66916179 C135.956742,-1.46283821 152.866742,6.34216179 158.477742,25.7691618 C163.439742,42.9511618 154.825742,59.4851618 137.359742,58.4531618 C107.083742,56.6641618 77.7687418,61.8771618 48.0157418,64.0531618 C32.1907418,65.2111618 18.7237418,56.0351618 7.91574182,44.5641618 C-1.52625818,34.5451618 -2.30325818,24.4641618 4.42174182,14.5311618 C11.9397418,3.42516179 27.5847418,-2.99083821 38.8117418,1.38816179 C49.9477418,5.74016179 61.1077418,9.44016179 74.1877418,10.3031618 Z M101.919742,33.4101618 C103.140742,26.0681618 100.713742,21.9651618 92.6067418,23.0211618 C87.7727418,23.6511618 83.0767418,24.8871618 83.8067418,31.1571618 C84.8067418,39.7221618 91.6777418,36.4991618 96.5587418,36.8151618 C98.0117418,36.9081618 99.5477418,35.6641618 101.919742,33.4101618 Z M54.6307418,51.0101618 C56.3797418,50.3391618 59.0307418,51.0601618 59.3417418,47.7051618 C42.4417418,46.9341618 28.6227418,39.0121618 14.9617418,27.1721618 C21.1157418,42.1001618 37.3637418,51.8001618 54.6307418,51.0151618 L54.6307418,51.0101618 Z M124.705742,30.1281618 C127.360742,27.0921618 129.543742,23.3851618 126.085742,20.1981618 C122.774742,17.1451618 117.915742,17.7281618 114.215742,19.7931618 C108.389742,23.0451618 108.061742,28.1141618 111.036742,33.4711618 C115.928742,35.8211618 119.355742,32.4681618 124.705742,30.1331618 L124.705742,30.1281618 Z M54.8197418,30.9051618 C57.2517418,37.8111618 62.6507418,37.8141618 68.0897418,35.9211618 C71.9057418,34.5931618 71.6147418,30.5731618 71.3897418,27.1941618 C71.0617418,22.2941618 67.6737418,21.3311618 63.4897418,20.9941618 C57.3137418,20.4921618 55.2417418,23.8031618 54.8197418,30.9101618 L54.8197418,30.9051618 Z M42.8467418,26.1111618 C45.0197418,16.9321618 37.9977418,15.6461618 32.0267418,14.1511618 C26.7147418,12.8201618 22.3267418,14.2761618 20.8567418,22.7991618 C30.5297418,17.1451618 34.2127418,29.3011618 42.8467418,26.1161618 L42.8467418,26.1111618 Z" id="Path_4058" fill="#000000"></path>
        </g>
    </g>
</svg>