<?xml version="1.0" encoding="UTF-8"?>
<svg width="255px" height="157px" viewBox="0 0 255 157" version="1.1" xmlns="http://www.w3.org/2000/svg" xmlns:xlink="http://www.w3.org/1999/xlink">
    <title>Lips/27</title>
    <g id="Lips/27" stroke="none" stroke-width="1" fill="none" fill-rule="evenodd">
        <g transform="translate(66.217541, 45.967756)" fill-rule="nonzero">
            <path d="M136.777231,46.2653748 C142.502231,42.2653748 143.733231,35.6573748 145.471231,29.7443748 C147.517231,22.7843748 143.785231,16.8003748 136.688231,17.7083748 C128.507231,18.7553748 120.100231,19.1083748 112.032231,22.7303748 C94.4732314,30.6103748 75.9952314,31.6053748 58.0982314,23.8823748 C49.9743389,20.2697607 41.3584862,17.8850248 32.5332314,16.8063748 C19.7792314,15.3683748 14.3202314,21.0133748 14.8492314,33.5343748 C15.3082314,44.3863748 25.1262314,53.1163748 38.3902314,53.6463748 C70.3842314,54.9243748 101.490231,41.5243748 133.814231,47.6713748 C134.159231,47.7373748 134.588231,47.3603748 136.777231,46.2653748 Z" id="Color-2" fill="#FFFFFF"></path>
            <path d="M23.4232314,1.16637483 C39.1522314,-3.11762517 51.0362314,5.35637483 62.8562314,11.1073748 C77.5182314,18.2403748 90.7062314,19.6833748 104.962231,11.1003748 C111.453231,7.19237483 118.662231,4.33237483 125.794231,1.66837483 C136.644231,-2.38362517 153.408231,2.51937483 158.162231,10.6273748 C164.868231,22.0643748 160.555231,46.8553748 149.584231,55.1893748 C139.991231,62.4763748 129.705231,68.0503748 116.616231,63.1243748 C96.3332314,55.4923748 77.3462314,65.7433748 57.9482314,68.7623748 C38.8762314,71.7303748 8.44823137,64.9953748 2.27523137,43.9553748 C-3.77876863,23.3103748 1.91023137,9.64737483 23.4232314,1.16637483 Z M136.777231,46.2663748 C142.502231,42.2663748 143.733231,35.6583748 145.471231,29.7453748 C147.517231,22.7853748 143.785231,16.8013748 136.688231,17.7093748 C128.507231,18.7563748 120.100231,19.1093748 112.032231,22.7313748 C94.4732314,30.6113748 75.9952314,31.6063748 58.0982314,23.8833748 C49.9743389,20.2707607 41.3584862,17.8860248 32.5332314,16.8073748 C19.7792314,15.3693748 14.3202314,21.0143748 14.8492314,33.5353748 C15.3082314,44.3873748 25.1262314,53.1173748 38.3902314,53.6473748 C70.3842314,54.9253748 101.490231,41.5253748 133.814231,47.6723748 C134.159231,47.7373748 134.588231,47.3603748 136.777231,46.2653748 L136.777231,46.2663748 Z" id="Path_4057" fill="#000000"></path>
        </g>
    </g>
</svg>