<?xml version="1.0" encoding="UTF-8"?>
<svg width="255px" height="157px" viewBox="0 0 255 157" version="1.1" xmlns="http://www.w3.org/2000/svg" xmlns:xlink="http://www.w3.org/1999/xlink">
    <title>Lips/28</title>
    <g id="Lips/28" stroke="none" stroke-width="1" fill="none" fill-rule="evenodd">
        <g transform="translate(127.977046, 71.112420)" fill="#000000" fill-rule="nonzero" id="Path_4056">
            <path d="M49.4077261,52.5177106 C40.1767261,40.3747106 31.9377261,27.1177106 15.4457261,23.3707106 C11.6057261,22.4987106 9.62872613,19.6607106 10.3267261,15.7437106 C11.0777261,11.5367106 14.5897261,10.8527106 18.1527261,10.7767106 C25.2767261,10.6257106 32.0527261,11.0637106 36.7867261,3.33471061 C39.1867261,-0.581289394 45.5097261,-0.757289394 49.8627261,1.30271061 C72.7227261,12.1187106 91.8317261,33.2027106 91.4057261,61.2757106 C91.2387261,72.2757106 85.3057261,78.5257106 76.7507261,83.3237106 C68.8277261,87.7647106 61.9787261,85.9007106 54.2137261,81.1297106 C44.1677261,74.9567106 36.0307261,67.5297106 29.8957261,57.6467106 C23.0227261,46.5697106 12.9097261,38.7817106 2.78772613,30.9977106 C1.13372613,29.7257106 -0.673273865,28.4087106 0.250726135,24.9437106 C15.1357261,22.8097106 25.5787261,30.5437106 34.2347261,41.2867106 C38.0647261,46.0397106 46.0087261,65.0487106 60.7897261,71.3017106 C71.9437261,76.0207106 79.9417261,73.4407106 80.8197261,61.8347106 C82.2147261,43.4007106 56.0937261,14.4427106 36.9507261,14.9807106 C49.6317261,27.0397106 60.2917261,39.0737106 62.3887261,55.8807106 C55.8997261,58.3887106 53.0567261,54.2697106 49.4077261,52.5177106 Z"></path>
        </g>
    </g>
</svg>