<?xml version="1.0" encoding="UTF-8"?>
<svg width="255px" height="157px" viewBox="0 0 255 157" version="1.1" xmlns="http://www.w3.org/2000/svg" xmlns:xlink="http://www.w3.org/1999/xlink">
    <title>Lips/29</title>
    <g id="Lips/29" stroke="none" stroke-width="1" fill="none" fill-rule="evenodd">
        <g transform="translate(125.075672, 51.000000)" fill-rule="nonzero">
            <path d="M16.6611001,27.9064508 C13.4161001,34.9114508 10.8881001,42.2174508 10.5181001,49.9134508 C10.2941001,54.5584508 11.3661001,59.8134508 16.5041001,61.5864508 C21.9531001,63.4634508 25.6631001,60.5664508 29.2881001,56.0324508 C35.3311001,48.4724508 36.7041001,39.7544508 36.8301001,30.8914508 C36.9001001,25.9724508 38.1101001,19.1084508 30.6991001,17.1914508 C23.1081001,15.2264508 20.0031001,20.3224508 16.6611001,27.9064508 Z" id="Color" fill="#FFFFFF"></path>
            <path d="M1.18410012,62.7534508 C-1.89589988,41.9294508 0.432100122,23.4974508 15.3661001,8.52545084 C28.7051001,-4.84854916 41.2521001,-2.14354916 50.6101001,14.2254508 C64.1951001,37.9864508 45.9421001,69.8254508 24.6581001,72.6934508 C15.1361001,73.9774508 6.67310012,73.5874508 1.18410012,62.7534508 Z M16.6621001,27.9024508 C13.4171001,34.9074508 10.8891001,42.2134508 10.5191001,49.9094508 C10.2951001,54.5544508 11.3671001,59.8094508 16.5051001,61.5824508 C21.9541001,63.4594508 25.6641001,60.5624508 29.2891001,56.0284508 C35.3321001,48.4684508 36.7051001,39.7504508 36.8311001,30.8874508 C36.9011001,25.9684508 38.1111001,19.1044508 30.7001001,17.1874508 C23.1081001,15.2264508 20.0031001,20.3224508 16.6611001,27.9064508 L16.6621001,27.9024508 Z" id="Path_4055" fill="#000000"></path>
        </g>
    </g>
</svg>