<?xml version="1.0" encoding="UTF-8"?>
<svg width="255px" height="157px" viewBox="0 0 255 157" version="1.1" xmlns="http://www.w3.org/2000/svg" xmlns:xlink="http://www.w3.org/1999/xlink">
    <title>Lips/3</title>
    <g id="Lips/3" stroke="none" stroke-width="1" fill="none" fill-rule="evenodd">
        <g transform="translate(49.328772, 18.193522)" fill="#000000" fill-rule="nonzero">
            <path d="M31.355,47.2026081 C30.267,42.6176081 28.579,38.3666081 33.403,36.4026081 C37.423,34.7676081 40.717,36.8736081 43.647,39.7636081 C53.483,49.4636081 64.842,57.5766081 78.095,60.8316081 C105.14,67.4756081 129.119,60.3476081 149.288,40.9396081 C152.639,37.7146081 155.966,34.4546081 159.482,31.4166081 C161.853,29.3666081 164.615,28.1666081 167.482,30.7106081 C170.495,33.3846081 168.956,36.1006081 167.328,38.6806081 C153.791,60.1306081 135.705,74.4806081 109.262,75.6456081 C101.222,76.0016081 93.168,76.6686081 85.138,76.4736081 C62.723,75.9296081 47.168,62.1856081 31.355,47.2026081 Z" id="Path_4083"></path>
            <path d="M0,36.2696081 C0.4,20.7636081 8.017,10.8986081 19.682,3.25960806 C24.341,0.209608057 29.025,-0.788391943 34.163,0.641608057 C37.474,1.56260806 40.709,3.30660806 41.245,7.18160806 C41.845,11.4816081 38.745,12.8016081 35.245,14.0156081 C24.154,17.8676081 16.392,25.1316081 13.766,36.8896081 C12.791,41.2556081 11.849,45.9256081 6.843,46.3506081 C0.907,46.8566081 1.555,40.9096081 0,36.2696081 Z" id="Path_4084"></path>
            <path d="M181.078,16.7176081 C181.008,7.98860806 186.518,9.40360806 190.8,10.7716081 C198.016,13.0716081 206.677,29.4136081 205.461,37.3016081 C205.081,39.7626081 205.083,42.5796081 202.184,43.7016081 C198.791,45.0136081 196.341,43.3466081 194.698,40.6016081 C190.148,32.9896081 185.762,25.2806081 181.078,16.7176081 Z" id="Path_4085"></path>
        </g>
    </g>
</svg>