<?xml version="1.0" encoding="UTF-8"?>
<svg width="255px" height="157px" viewBox="0 0 255 157" version="1.1" xmlns="http://www.w3.org/2000/svg" xmlns:xlink="http://www.w3.org/1999/xlink">
    <title>Lips/30</title>
    <g id="Lips/30" stroke="none" stroke-width="1" fill="none" fill-rule="evenodd">
        <g id="Lips/15" transform="translate(56.208708, 37.029130)" fill-rule="nonzero">
            <path d="M112.734064,64.021 C117.621064,49.737 116.883064,47.78 102.970064,45.31 C92.7840642,43.503 83.6420642,39.015 73.9760642,35.91 C63.0900642,32.415 55.9580642,22.116 44.5030642,19.396 C38.4950642,49.17 78.2360642,75.899 112.734064,64.021 Z" id="Color-7" fill="#FFFFFF"></path>
            <path d="M108.851064,80.799 C82.0910642,85.119 59.8820642,76.771 41.4300642,59.614 C29.0700642,48.12 24.4090642,32.245 26.2770642,15.446 C27.8100642,1.668 35.0160642,-0.648 46.8200642,6.226 C66.9630642,17.956 87.1840642,29.89 112.166064,27.075 C118.093064,26.407 123.866064,26.101 129.501064,23.703 C133.628064,21.946 138.901064,19.779 141.632064,25.743 C143.710064,30.275 141.198064,33.913 137.302064,36.52 C128.357064,42.504 123.377064,48.411 133.308064,58.653 C137.813064,63.299 133.651064,69.528 128.508064,72.428 C122.661064,75.729 116.113064,77.796 108.851064,80.799 Z M112.733064,64.025 C117.620064,49.741 116.882064,47.784 102.969064,45.314 C92.7830642,43.507 83.6410642,39.019 73.9750642,35.914 C63.0890642,32.419 55.9570642,22.12 44.5020642,19.4 C38.4950642,49.17 78.2360642,75.899 112.734064,64.021 L112.733064,64.025 Z" id="Path_4072" fill="#000000"></path>
            <path d="M10.7930642,0 C19.0190642,3.691 18.4840642,9.225 15.0280642,15.021 C12.4000642,19.427 8.47906416,22.144 3.32806416,18.928 C-1.47193584,15.928 -0.419935838,11.861 2.34806416,7.934 C4.48906416,4.899 5.38506416,0.68 10.7930642,0 Z" id="Path_4071" fill="#000000"></path>
        </g>
    </g>
</svg>