<?xml version="1.0" encoding="UTF-8"?>
<svg width="255px" height="157px" viewBox="0 0 255 157" version="1.1" xmlns="http://www.w3.org/2000/svg" xmlns:xlink="http://www.w3.org/1999/xlink">
    <title>Lips/5</title>
    <g id="Lips/5" stroke="none" stroke-width="1" fill="none" fill-rule="evenodd">
        <g transform="translate(63.030875, 56.900066)" fill="#000000" fill-rule="nonzero" id="Path_4081">
            <path d="M36.2818979,52.096064 C23.6508979,58.691064 20.0898979,50.396064 16.3148979,41.663064 C12.9688979,33.921064 15.4788979,23.563064 2.75389788,19.899064 C-3.27410212,18.164064 2.05389788,9.440064 4.93489788,4.521064 C7.38589788,0.343064001 11.8508979,-1.924936 15.5408979,2.121064 C31.3408979,19.460064 53.3288979,18.750064 73.6258979,22.073064 C97.0178979,25.902064 118.844898,16.973064 140.837898,10.709064 C145.237898,9.454064 150.091898,5.496064 153.852898,9.695064 C157.933748,14.2845072 158.761407,20.915319 155.933898,26.367064 C151.424898,35.611064 145.455898,43.767064 136.376898,49.212064 C132.446898,51.570064 128.320898,53.145064 124.737898,49.341064 C118.360898,42.573064 113.657898,43.614064 106.737898,49.719064 C94.7158979,60.319064 87.4698979,58.831064 75.6438979,46.067064 C71.7648979,44.993064 70.8768979,48.835064 68.6748979,50.481064 C61.0408979,56.181064 52.9888979,58.357064 46.1558979,50.200064 C41.4058979,44.535064 39.5128979,47.520064 36.2818979,52.096064 Z"></path>
        </g>
    </g>
</svg>