<?xml version="1.0" encoding="UTF-8"?>
<svg width="255px" height="157px" viewBox="0 0 255 157" version="1.1" xmlns="http://www.w3.org/2000/svg" xmlns:xlink="http://www.w3.org/1999/xlink">
    <title>Lips/6</title>
    <g id="Lips/6" stroke="none" stroke-width="1" fill="none" fill-rule="evenodd">
        <g transform="translate(66.862772, 61.262130)" fill="#000000" fill-rule="nonzero" id="Path_4080">
            <path d="M21.039,9.316 C59.176,24.575 96.391,23.647 133.839,10.275 C138.344,8.666 144.473,3.889 148.839,10.59 C153.065,17.077 149.419,22.867 145.433,28.085 C142.732193,31.8896194 139.66704,35.4219807 136.281,38.632 C132.465,41.99 127.233,46.018 122.601,42.004 C113.848,34.419 107.948,36.484 99.948,43.744 C88.68,53.97 79.01,48.238 72.301,36.794 C50.588,51.07 50.588,51.07 39.611,38.494 C38.77,38.542 37.64,38.262 37.13,38.702 C22.425,51.391 19.278,50.024 13.23,30.151 C10.917,22.551 11.936,11.951 0,10.275 C0.488,5.775 3.2,2.769 6.357,0 C12.763,0.888 14.088,8.575 21.039,9.316 Z M32.111,23.638 C28.4798301,20.0700102 23.7371737,17.8518303 18.671,17.352 C16.921,25.252 21.787,30.132 24.307,35.879 C30.363,34.264 32.132,30.33 32.111,23.638 Z M51.652,40.322 C57.18,40.578 61.563,38.473 59.727,32.481 C58.014,26.89 52.838,26.246 46.675,28.181 C47.434,32.449 46.191,36.721 51.652,40.322 L51.652,40.322 Z M96.562,36.88 C98.897,26.367 90.749,31.916 87.148,31.017 C84.72,30.411 81.825,31.582 81.934,34.878 C82.106,40.051 86.249,40.6 90.068,40.559 C91.927,40.539 93.772,39.114 96.562,36.88 L96.562,36.88 Z M127.001,22.301 C120.583,25.686 121.714,29.757 125.462,34.415 C131.913,33.557 135.227,29.575 135.501,24.291 C135.725,19.97 131.597,21.088 126.997,22.301 L127.001,22.301 Z"></path>
        </g>
    </g>
</svg>