<?xml version="1.0" encoding="UTF-8"?>
<svg width="255px" height="157px" viewBox="0 0 255 157" version="1.1" xmlns="http://www.w3.org/2000/svg" xmlns:xlink="http://www.w3.org/1999/xlink">
    <title>Lips/7</title>
    <g id="Lips/7" stroke="none" stroke-width="1" fill="none" fill-rule="evenodd">
        <g transform="translate(47.031713, 40.803056)" fill-rule="nonzero">
            <path d="M136.87106,59.0050742 C146.47106,59.6130742 155.43006,57.8620742 163.69306,52.5640742 C172.48606,46.9270742 173.53406,35.8270742 165.21406,29.4640742 C155.77406,22.2460742 145.23206,22.5640742 135.20806,27.6250742 C115.02706,37.8200742 95.2080596,46.4730742 73.9440596,30.0360742 C68.9720596,26.1910742 62.8630596,23.8510742 57.4530596,20.5360742 C48.8020596,15.2280742 39.6670596,14.9940742 30.4100596,17.9840742 C19.7020596,21.4430742 11.0020596,34.6260742 14.1460596,43.7680742 C18.1240596,55.3350742 28.6400596,54.3380742 37.7960596,53.0480742 C47.8811839,51.4865221 58.1955092,52.4267479 67.8320596,55.7860742 C89.7780596,63.5400742 112.06306,63.1620742 136.87106,59.0050742 Z" id="Color-14" fill="#FFFFFF"></path>
            <path d="M159.38906,72.1280742 C125.13706,74.5080742 91.9220596,79.7420742 59.0750596,69.0680742 C52.7420596,67.0100742 45.6300596,68.7920742 38.8120596,69.4250742 C18.9260596,71.2700742 -1.82594041,60.4070742 0.128059588,41.3050742 C3.47905959,8.5570742 27.8090596,-5.5319258 57.0510596,1.9710742 C69.0880596,5.0600742 80.6560596,10.3630742 89.9560596,20.0820742 C98.2810596,28.7820742 113.21806,26.7740742 124.61106,17.2970742 C143.62706,1.4800742 167.13306,4.4340742 181.45206,22.8280742 C196.50206,42.1610742 181.72806,71.7760742 159.38906,72.1280742 Z M136.87106,59.0050742 C146.47106,59.6130742 155.43006,57.8620742 163.69306,52.5640742 C172.48606,46.9270742 173.53406,35.8270742 165.21406,29.4640742 C155.77406,22.2460742 145.23206,22.5640742 135.20806,27.6250742 C115.02706,37.8200742 95.2080596,46.4730742 73.9440596,30.0360742 C68.9720596,26.1910742 62.8630596,23.8510742 57.4530596,20.5360742 C48.8020596,15.2280742 39.6670596,14.9940742 30.4100596,17.9840742 C19.7020596,21.4430742 11.0020596,34.6260742 14.1460596,43.7680742 C18.1240596,55.3350742 28.6400596,54.3380742 37.7960596,53.0480742 C47.8811839,51.4865221 58.1955092,52.4267479 67.8320596,55.7860742 C89.7780596,63.5400742 112.06306,63.1620742 136.87106,59.0050742 Z" id="Path_4079" fill="#000000"></path>
        </g>
    </g>
</svg>