<?xml version="1.0" encoding="UTF-8"?>
<svg width="255px" height="157px" viewBox="0 0 255 157" version="1.1" xmlns="http://www.w3.org/2000/svg" xmlns:xlink="http://www.w3.org/1999/xlink">
    <title>Lips/8</title>
    <g id="Lips/8" stroke="none" stroke-width="1" fill="none" fill-rule="evenodd">
        <g transform="translate(52.399909, 44.340670)" fill-rule="nonzero">
            <path d="M103.181864,92.8304608 C94.4208638,92.8414608 86.7068638,93.3574608 79.1578638,92.4704608 C74.0898638,91.8754608 68.7808638,89.0884608 70.2778638,82.5174608 C71.5558638,76.9114608 76.1608638,76.4634608 81.4558638,77.2774608 C88.1238638,78.3034608 94.9358638,78.4634608 101.695864,78.7774608 C105.744864,78.9664608 109.684864,79.5264608 110.895864,83.9604608 C112.366864,89.3094608 108.970864,91.6614608 103.181864,92.8304608 Z" id="Path_4077" fill="#000000"></path>
            <path d="M127.332864,47.9854608 C135.856864,55.1124608 144.232864,55.5344608 153.864864,49.2634608 C163.984864,42.6784608 166.764864,33.6054608 167.195864,21.2084608 C116.331864,23.0364608 66.6708638,20.6254608 15.0808638,11.0454608 C20.0628638,17.8764608 27.4548638,14.6614608 28.9298638,22.8454608 C32.3798638,42.0024608 41.3078638,46.4914608 59.5298638,39.9884608 C65.1028638,38.0004608 68.7298638,37.9174608 72.2088638,43.7524608 C83.2408638,62.2394608 97.0258638,64.9694608 114.328864,52.6024608 C117.783864,50.1384608 120.739864,46.8314608 127.332864,47.9854608 Z" id="Color-13" fill="#FFFFFF"></path>
            <path d="M143.010864,9.26746077 C154.102864,10.6744608 165.020864,5.54746077 173.798864,12.7914608 C185.893864,22.7724608 182.744864,45.5344608 167.649864,55.0774608 C157.316864,61.6094608 146.435864,68.4894608 133.242864,61.0504608 C129.121864,58.7264608 125.609864,60.2894608 121.749864,63.3254608 C107.640864,74.4254608 86.4418638,77.0834608 68.9498638,60.1994608 C65.0728638,56.4584608 61.3848638,54.6824608 55.3818638,55.7344608 C41.7028638,58.1344608 30.0418638,53.3484608 22.9918638,41.1344608 C18.7340615,33.4688732 13.1121768,26.6452764 6.40286384,20.9994608 C1.17386384,16.6774608 -1.83913616,10.1594608 1.23686384,4.07946077 C3.98386384,-1.34953923 10.3308638,0.0224607672 16.1368638,0.546460767 C43.1538638,2.98646077 70.2088638,5.29246077 97.3008638,6.51046077 C112.144864,7.18046077 126.798864,10.8524608 143.010864,9.26746077 Z M127.332864,47.9854608 C135.856864,55.1124608 144.232864,55.5344608 153.864864,49.2634608 C163.984864,42.6784608 166.764864,33.6054608 167.195864,21.2084608 C116.331864,23.0364608 66.6708638,20.6254608 15.0808638,11.0454608 C20.0628638,17.8764608 27.4548638,14.6614608 28.9298638,22.8454608 C32.3798638,42.0024608 41.3078638,46.4914608 59.5298638,39.9884608 C65.1028638,38.0004608 68.7298638,37.9174608 72.2088638,43.7524608 C83.2408638,62.2394608 97.0258638,64.9694608 114.328864,52.6024608 C117.783864,50.1384608 120.739864,46.8314608 127.332864,47.9854608 Z" id="Path_4078" fill="#000000"></path>
        </g>
    </g>
</svg>