<?xml version="1.0" encoding="UTF-8"?>
<svg width="255px" height="157px" viewBox="0 0 255 157" version="1.1" xmlns="http://www.w3.org/2000/svg" xmlns:xlink="http://www.w3.org/1999/xlink">
    <title>Lips/9</title>
    <g id="Lips/9" stroke="none" stroke-width="1" fill="none" fill-rule="evenodd">
        <g transform="translate(42.328162, 31.125304)" fill-rule="nonzero">
            <path d="M36.8006106,45.0488262 C44.4246106,29.9048262 30.8426106,25.1258262 23.7576106,16.3038262 C11.6726106,44.5038262 14.5226106,72.1738262 29.8906106,81.3038262 C31.1086106,69.6358262 29.6136106,57.4608262 36.8006106,45.0488262 Z" id="Color-12" fill="#FFFFFF"></path>
            <path d="M46.5666106,66.1468262 C46.4116106,74.4598262 46.6096106,81.7008262 46.3006106,88.9208262 C45.7896106,100.845826 38.8156106,105.160826 27.3436106,101.028826 C11.7816106,95.4288262 4.42261061,81.3398262 2.50361061,67.8468262 C-0.163389392,49.0948262 -3.26838939,29.0468262 8.14661061,10.7698262 C15.7466106,-1.39517376 28.1336106,-4.02117376 36.5976106,6.85882624 C48.8546106,22.6138262 61.2356106,37.9588262 80.0366106,46.4718262 C84.0746106,48.3008262 85.4776106,51.8718262 83.8266106,56.0488262 C82.1646106,60.2558262 78.4086106,59.2908262 75.0716106,58.9308262 C67.0086106,58.0598262 61.0296106,50.9698262 52.6356106,51.1438262 C47.9636106,54.8008262 49.0726106,60.6768262 46.5666106,66.1468262 Z M36.8006106,45.0468262 C44.4246106,29.9028262 30.8426106,25.1238262 23.7576106,16.3018262 C11.6726106,44.5018262 14.5226106,72.1718262 29.8906106,81.3018262 C31.1086106,69.6358262 29.6136106,57.4608262 36.8006106,45.0488262 L36.8006106,45.0468262 Z" id="_Compound_Path_" fill="#000000"></path>
        </g>
    </g>
</svg>