<?xml version="1.0" encoding="UTF-8"?>
<svg width="510px" height="165px" viewBox="0 0 510 165" version="1.1" xmlns="http://www.w3.org/2000/svg" xmlns:xlink="http://www.w3.org/1999/xlink">
    <title>Eyes/1</title>
    <g id="Eyes/1" stroke="none" stroke-width="1" fill="none" fill-rule="evenodd">
        <g transform="translate(0.344560, 1.127598)" fill-rule="nonzero">
            <path d="M300.111,12.9826666 C360.991,13.3886666 420.596,13.7696666 480.2,14.2516666 C484.875784,14.4063081 489.539509,14.8182648 494.17,15.4856666 C501.286,16.3336666 504.57,19.6726666 506.149,27.5176666 C512.375,58.3666666 508.949,88.5316666 499.872,117.906667 C494.414,135.580667 479.881,145.976667 462.324,151.447667 C439.394,158.591667 415.877,163.823667 392.524,155.347667 C371.785,147.817667 355.348,135.352667 349.669,111.411667 C346.94,99.9046666 341.581,89.2546666 343.912,76.8816666 C344.654,72.9436666 340.825,71.0066666 337.833,69.4816666 C322.843,61.8356666 308.133,69.2906666 305.425,85.9596666 C302.455,104.247667 296.425,121.768667 286.064,136.749667 C269.52,160.663667 244.414,166.133667 217.055,162.896667 C195.508,160.346667 176.891,151.308667 160.855,136.308667 C146.505,122.886667 139.238,106.766667 140.779,87.5136666 C141.679,76.3076666 135.358,71.2136666 127.079,69.8036666 C107.612,66.4846666 90.079,57.6816666 72.028,50.9246666 C56.921,45.2706666 41.302,41.3736666 26.298,35.5586666 C22.041,33.9086666 18.164,33.0586666 18.846,26.6936666 C28.321,22.2716666 36.514,29.9126666 46.414,29.8516666 C43.729,20.8706666 38.136,17.4786666 29.153,17.0806666 C18.379,16.6026666 8.753,12.9036666 1.623,3.90566657 C6.397,-0.746333431 10.65,-0.414333431 14.804,0.712666569 C53.779,11.2886666 94.293,13.5126666 133.577,22.6246666 C143.863,25.0096666 154.916,25.0526666 164.617,16.2026666 C171.602,9.82866657 182.441,10.8546666 191.692,10.9426666 C227.411,11.2766666 263.122,12.2476666 300.111,12.9826666 Z M150.011,78.8436666 C153.374,120.554667 176.758,141.828667 212.791,149.837667 C236.364,155.077667 265.064,149.975667 279.601,123.057667 C287.784,107.904667 292.423,91.9176666 296.614,75.4736666 C300.485,60.2806666 310.849,55.4276666 332.255,57.2126666 C346.549,58.4046666 353.131,65.0566666 355.055,79.6776666 C356.498,90.6366666 358.131,101.577667 360.076,112.461667 C362.532,126.209667 379.509,142.785667 393.388,145.570667 C414.727358,149.984196 436.875054,148.353682 457.338,140.862667 C469.318,136.523667 480.243,130.491667 486.015,117.868667 C496.097,95.8196666 499.11,72.5826666 498.794,48.6526666 C498.504,26.7316666 497.179,25.2526666 474.494,25.1626666 C440.866,25.0286666 407.236,25.3086666 373.61,25.0146666 C319.578,24.5436666 265.551,23.5896666 211.519,23.1976666 C197.681,23.0976666 182.08,18.0646666 170.592,27.5976666 C160.577,35.9056666 150.623,34.8796666 139.713,34.9716666 C132.994,35.0286666 126.535,31.2186666 119.113,33.8256666 C120.434,48.6416666 123.805,61.5916666 141.054,65.0506666 C147.402,66.3206666 150.778,69.8816666 150.007,78.8436666 L150.011,78.8436666 Z M94.095,35.9866666 C90.767,21.2366666 80.376,24.9486666 70.042,25.9236666 C74.997,39.7136666 85.164,44.6656666 98.17,47.4346666 C96.76,43.7416666 95.616,40.7486666 94.091,35.9866666 L94.095,35.9866666 Z" id="Path_4000" fill="#FFFFFF"></path>
            <path d="M263.99,13.1546666 C332.79,12.7166666 400.347,12.2546666 467.907,11.8446666 C477.09,11.7886666 486.869,10.0586666 495.197,14.0916666 C506.938,19.7766666 505.816,32.4706666 506.712,42.8916666 C508.912,68.4466666 506.532,93.9306666 497.621,117.997667 C492.214836,132.557284 480.408034,143.818227 465.609,148.529667 C442.134,156.346667 417.589,162.029667 393.571,153.407667 C374.871,146.695667 359.146,134.762667 351.527,114.350667 C347.458,103.450667 340.719,93.8066666 340.412,81.3306666 C340.298,76.7116666 334.712,73.2696666 328.78,73.2606666 C321.743,73.2486666 318.038,77.7296666 315.172,83.1326666 C311.022,90.9586666 310.722,99.9326666 307.514,108.299667 C293.314,145.363667 268.793,163.591667 229.414,162.799667 C203.78,162.285667 181.763,152.489667 162.706,135.399667 C147.806,122.043667 141.471,105.385667 141.875,85.7456666 C141.952,81.9696666 141.886,78.1916666 141.886,73.7026666 C101.428,64.4826666 65.81,43.5626666 26.211,33.9786666 C22.952,33.1896666 20.797,31.9876666 19.434,29.0786666 C15.023,19.6786666 8.387,11.7196666 2.27373675e-13,0.970666569 C20.406,4.52466657 37.935,7.81966657 55.546,10.5906666 C85.605,15.3196666 115.288,22.5146666 145.738,24.6546666 C152.367,25.1196666 158.229,25.0056666 163.954,18.7886666 C170.928,11.2156666 182.693,12.6586666 191.797,12.9586666 C215.472,13.7476666 239.093,14.0196666 263.99,13.1546666 Z M95.723,50.5786666 C98.552,52.0506666 100.963,51.6736666 100.963,48.1236666 C100.963,29.3016666 86.408,19.0856666 66.851,24.6306666 C70.829,38.7366666 81.428,45.2206666 95.723,50.5786666 Z M106.123,42.8366666 C110.457,54.4796666 110.457,54.4796666 117.436,56.1066666 C112.68,46.0566666 113.058,34.0066666 102.501,24.9496666 C101.144,32.2616666 102.647,36.7866666 106.128,42.8366666 L106.123,42.8366666 Z" id="Path_4001" fill="#000000"></path>
            <path d="M286.56,43.6266666 C285.886,37.6266666 289.688,36.2926666 293.576,36.2806666 C312.649,36.2226666 331.729,36.2966666 350.793,36.7946666 C355.14179,36.8152067 359.234283,38.8548022 361.869,42.3146666 C354.967,50.3726666 308.295,51.6986666 286.56,43.6266666 Z" id="Path_4002" fill="#000000"></path>
            <g id="Group_44" transform="translate(191.943879, 38.453856)" fill="#FFFFFF">
                <g id="Group_42" transform="translate(0.000000, -0.000000)">
                    <path d="M0.616120674,23.8898106 C-0.211879326,23.5898106 1.64612067,23.9518106 0.533120674,24.2898106 C-6.09787933,26.2728106 51.2231207,77.1108106 56.2851207,72.7978106 C59.2161207,70.2938106 6.76412067,26.4718106 0.616120674,23.8898106 Z" id="Path_4003"></path>
                    <path d="M20.9681207,0.111810603 C20.1401207,-0.188189397 21.9981207,0.173810603 20.8851207,0.511810603 C14.2531207,2.4938106 71.5751207,53.3318106 76.6371207,49.0198106 C79.5711207,46.5158106 27.1161207,2.6938106 20.9681207,0.111810603 Z" id="Path_4004"></path>
                </g>
                <g id="Group_43" transform="translate(195.313845, -0.000000)">
                    <path d="M0.616275399,23.8898106 C-0.212724601,23.5898106 1.6462754,23.9518106 0.533275399,24.2898106 C-6.0987246,26.2728106 51.2222754,77.1108106 56.2852754,72.7978106 C59.2192754,70.2938106 6.7672754,26.4718106 0.616275399,23.8898106 Z" id="Path_4005"></path>
                    <path d="M20.9722754,0.111810603 C20.1432754,-0.188189397 22.0012754,0.173810603 20.8892754,0.511810603 C14.2572754,2.4938106 71.5782754,53.3318106 76.6412754,49.0198106 C79.5752754,46.5158106 27.1232754,2.6938106 20.9722754,0.111810603 Z" id="Path_4006"></path>
                </g>
            </g>
        </g>
    </g>
</svg>