<?xml version="1.0" encoding="UTF-8"?>
<svg width="510px" height="165px" viewBox="0 0 510 165" version="1.1" xmlns="http://www.w3.org/2000/svg" xmlns:xlink="http://www.w3.org/1999/xlink">
    <title>Eyes/10</title>
    <g id="Eyes/10" stroke="none" stroke-width="1" fill="none" fill-rule="evenodd">
        <g id="Eyes/4" transform="translate(17.212560, 9.290618)" fill="#000000" fill-rule="nonzero">
            <path d="M456.928,7.64964678 C482.502,22.0086468 486.328,58.8096468 477.769,75.4936468 C469.846,90.9386468 458.336,104.055647 444.931,115.384647 C433.259,125.249647 421.112,133.930647 406.074,138.198647 C399.106,140.175647 393.101,138.338647 387.949,134.912647 C369.872,122.890647 354.816,107.412647 340.534,91.1936468 C337.447125,87.6455126 335.172149,83.4661917 333.868,78.9476468 C329.599,64.7156468 319.006,59.6776468 305.561,65.9566468 C296.682,70.1036468 288.761,75.6656468 283.248,84.2616468 C269.681,105.427647 251.429,121.646647 229.66,134.042647 C215.452,142.132647 206.153,140.433647 192.646,130.369647 C179.678619,120.688509 167.815302,109.61058 157.27,97.3356468 C148.879,87.6176468 140.522,78.0266468 141.587,63.9116468 C141.937,59.2686468 139.087,56.9396468 135.124,55.6256468 C133.910658,55.218192 132.647278,54.9786379 131.369,54.9136468 C110.132,53.9826468 90.118,46.0056468 68.829,44.5946468 C52.798,43.5316468 37.919,35.9096468 22.309,31.9726468 C17.802,30.8366468 13.63,28.1896468 9.1,27.3726468 C2.616,26.2096468 1.311,21.8876468 0,15.7726468 C11.7952457,13.9376861 23.8677177,15.3634489 34.911,19.8956468 C53.197,27.0636468 72.911,28.2596468 91.875,32.6566468 C107.375,36.2496468 123.4,37.6866468 139.586,42.7246468 C144.086,25.2246468 151.107,10.0396468 169.232,2.70664678 C189.049,-5.31135322 202.432,5.91864678 217.169,17.6826468 C232.415,9.59264678 248.578,0.442646776 266.906,7.87064678 C285.324,15.3346468 289.706,32.5926468 293.072,50.6536468 C304.672,51.0256468 315.894,47.1096468 327.108,49.9286468 C330.951,42.9396468 331.443,35.6026468 333.352,28.7286468 C340.258,3.85264678 366.766,-7.35035322 388.865,5.57364678 C389.63501,5.94068108 390.365759,6.38496008 391.046,6.89964678 C400.871,15.8096468 410.169,16.5576468 422.597,9.76564678 C432.135,4.55864678 444.408,2.24464678 456.928,7.64964678 Z" id="Path_3992"></path>
        </g>
    </g>
</svg>