<?xml version="1.0" encoding="UTF-8"?>
<svg width="510px" height="165px" viewBox="0 0 510 165" version="1.1" xmlns="http://www.w3.org/2000/svg" xmlns:xlink="http://www.w3.org/1999/xlink">
    <title>Eyes/11</title>
    <g id="Eyes/11" stroke="none" stroke-width="1" fill="none" fill-rule="evenodd">
        <g id="Eyes/5" transform="translate(14.833560, 21.465282)" fill-rule="nonzero">
            <path d="M386.377,8.44298257 C403.991,8.64298257 420.519,8.32998257 437.003,9.03598257 C446.596,9.44698257 456.146,11.3269826 465.661,12.8749826 C469.035,13.4239826 471.851,15.1109826 473.155,18.9409826 C481.864,44.5349826 485.631,70.1759826 474.704,96.1459826 C468.961,109.796983 460.082,117.208983 443.899,117.371983 C417.531,117.637983 391.178,119.832983 364.757,119.583983 C347.457,119.419983 339.913,114.183983 335.403,97.7279826 C332.061,85.5339826 324.732,74.5979826 325.203,61.1139826 C325.458,53.8749826 318.408,53.2239826 312.971,52.5729826 C304.04,51.5039826 297.304,55.0369826 293.371,63.3649826 C291.289,67.7799826 291.558,72.5109826 291.579,77.1849826 C291.645,91.7139826 284.697,103.439983 275.769,113.846983 C264.918,126.497983 249.9,122.367983 236.213,121.363983 C213.366,119.685983 190.613,116.789983 167.774,114.940983 C155.068,113.912983 144.795,107.240983 144.674,94.5079826 C144.422,67.1829826 129.574,56.1019826 105.188,48.8309826 C78.52,40.8799826 53.275,28.1869826 27.33,17.7589826 C17.618,13.8589826 6.43,12.7009826 -2.27373675e-13,0.627982567 C12.3,-1.67201743 23.254,2.72798257 33.331,7.62798257 C64.619,22.8539826 97.251,34.3229826 130.34,44.7449826 C135.618,46.4069826 138.654,44.3539826 140.74,40.2009826 C142.826,36.0479826 143.954,31.4439826 146.097,27.3469826 C155.527,9.30798257 170.623,2.99698257 193.432,6.12798257 C215.711,9.18698257 237.915,12.4989826 260.512,13.5819826 C285.535,14.7819826 290.566,20.5019826 292.721,42.0979826 C303.294,41.3389826 313.848,37.0499826 324.796,40.5139826 C328.196,41.5889826 330.077,36.6139826 331.196,33.5359826 C339.258,11.3919826 357.725,8.57598257 377.59,8.24598257 C380.157,8.20698257 382.715,8.32098257 386.377,8.44298257 Z" id="Path_3987" fill="#000000"></path>
            <g id="Group_38" transform="translate(177.454879, 18.116172)" fill="#FFFFFF">
                <g id="Group_36" transform="translate(0.000000, -0.000000)">
                    <path d="M0.616120674,23.8898106 C-0.211879326,23.5898106 1.64612067,23.9518106 0.533120674,24.2898106 C-6.09787933,26.2728106 51.2231207,77.1108106 56.2851207,72.7978106 C59.2161207,70.2938106 6.76412067,26.4718106 0.616120674,23.8898106 Z" id="Path_3988"></path>
                    <path d="M20.9681207,0.111810603 C20.1401207,-0.188189397 21.9981207,0.173810603 20.8851207,0.511810603 C14.2531207,2.4938106 71.5751207,53.3318106 76.6371207,49.0198106 C79.5711207,46.5158106 27.1161207,2.6938106 20.9681207,0.111810603 Z" id="Path_3989"></path>
                </g>
                <g id="Group_37" transform="translate(195.313845, -0.000000)">
                    <path d="M0.616275399,23.8898106 C-0.212724601,23.5898106 1.6462754,23.9518106 0.533275399,24.2898106 C-6.0987246,26.2728106 51.2222754,77.1108106 56.2852754,72.7978106 C59.2192754,70.2938106 6.7672754,26.4718106 0.616275399,23.8898106 Z" id="Path_3990"></path>
                    <path d="M20.9722754,0.111810603 C20.1432754,-0.188189397 22.0012754,0.173810603 20.8892754,0.511810603 C14.2572754,2.4938106 71.5782754,53.3318106 76.6412754,49.0198106 C79.5752754,46.5158106 27.1232754,2.6938106 20.9722754,0.111810603 Z" id="Path_3991"></path>
                </g>
            </g>
        </g>
    </g>
</svg>