<?xml version="1.0" encoding="UTF-8"?>
<svg width="510px" height="165px" viewBox="0 0 510 165" version="1.1" xmlns="http://www.w3.org/2000/svg" xmlns:xlink="http://www.w3.org/1999/xlink">
    <title>Eyes/13</title>
    <g id="Eyes/13" stroke="none" stroke-width="1" fill="none" fill-rule="evenodd">
        <g id="Eyes/7" transform="translate(13.483560, 21.603924)" fill="#000000" fill-rule="nonzero">
            <path d="M436.721,13.1973413 C446.55,15.2383413 455.437,13.0363413 464.333,15.4243413 C477.319,18.9113413 482.133,27.7393413 485.115,39.5693413 C490.205,59.7623413 491.304,79.6193413 485.251,99.8883413 C481.821,111.376341 478.169,118.274341 463.288,118.206341 C435.74,118.080341 408.113,118.694341 380.544,119.460341 C345.837,120.424341 337.677,106.111341 332.809,73.3503413 C330.496,57.7883413 325.709,51.6503413 311.477,52.1303413 C299.971,52.5183413 292.945,60.4253413 293.129,74.9103413 C293.321,90.0103413 286.748,102.310341 277.94,113.239341 C267.128,126.657341 251.366,122.167341 237.302,121.213341 C214.442,119.664341 191.683,116.684341 168.841,114.813341 C156.288,113.782341 147,106.853341 145.821,94.1623413 C145.021,85.5153413 141.591,77.6713413 140.537,69.2793413 C139.854,63.8483413 137.218,60.8343413 132.437,58.9793413 C94.131,44.1446746 55.8283333,29.3000079 17.529,14.4453413 C10.974,11.9123413 6.349,7.06734126 -7.57306469e-29,0.833341259 C13.7,-1.91465874 24.653,2.60634126 34.752,7.50834126 C66.052,22.7003413 98.698,34.1403413 131.758,44.6413413 C138.638,46.8263413 141.125,42.5103413 143.435,37.8553413 C145.494,33.7063413 146.444,28.9553413 148.795,25.0123413 C159.161,7.62234126 172.783,2.94834126 195.988,6.15134126 C216.571,8.99234126 237.028,13.0513413 257.988,13.1233413 C282.323,13.2093413 288.177,17.8443413 295.476,41.5413413 C306.742,39.5863413 318.387,36.8413413 329.909,42.3553413 C334.664,44.6283413 336.088,39.9093413 337.186,35.9733413 C342.334,17.5113413 348.149,12.9963413 366.525,13.0123413 C389.546,13.0323413 412.566,13.1033413 436.721,13.1973413 Z M176.363,15.6823413 C170.649,15.6263413 165.512,16.3823413 162.286,22.1823413 C149.386,45.3743413 146.646,69.4603413 155.345,94.6823413 C156.807,98.9223413 158.803,102.167341 164.085,102.589341 C194.563,105.021341 225.029667,107.588008 255.485,110.289341 C262.041,110.864341 266.275,108.216341 270.804,103.398341 C283.579,89.8083413 282.287,72.5133413 283.198,56.4333413 C284.691,30.0843413 282.415,28.2813413 254.112,23.7773413 C229.016,19.7813413 203.513,18.3223413 176.365,15.6823413 L176.363,15.6823413 Z M342,64.2673413 C340.065,75.8193413 344.858,86.0393413 348.99,96.1673413 C351.527,102.386341 355.69,109.380341 363.436,108.904341 C396.527,106.868341 429.622,107.445341 462.719,107.768341 C469.55,107.835341 471.971,104.690341 474.148,98.5853413 C481.739,77.2943413 477.541,56.6113413 472.057,35.9613413 C470.538,30.2433413 466.27,27.2523413 459.782,26.6913413 C428.462,23.9843413 397.158,21.5353413 365.665,22.3673413 C358.857,22.5473413 354.655,25.1453413 351.339,30.8973413 C345.669,40.7303413 345.493,52.0603413 342.002,64.2673413 L342,64.2673413 Z" id="Path_3985"></path>
        </g>
    </g>
</svg>