<?xml version="1.0" encoding="UTF-8"?>
<svg width="510px" height="165px" viewBox="0 0 510 165" version="1.1" xmlns="http://www.w3.org/2000/svg" xmlns:xlink="http://www.w3.org/1999/xlink">
    <title>Eyes/19</title>
    <g id="Eyes/19" stroke="none" stroke-width="1" fill="none" fill-rule="evenodd">
        <g id="Eyes/8" transform="translate(20.929808, 7.644040)" fill-rule="nonzero">
            <path d="M245.038752,10.464225 C262.499752,21.624225 274.278752,36.191225 280.210752,55.151225 C296.010752,52.094225 310.903752,49.358225 326.528752,57.351225 C331.277752,44.492225 336.928752,32.709225 346.413752,22.689225 C361.889752,6.34222504 397.053752,-5.74177496 422.606752,2.84322504 C448.816752,11.648225 467.454752,29.035225 475.253752,54.006225 C482.402752,76.897225 478.934752,100.520225 463.970752,121.848225 C428.170752,172.877225 353.647752,159.348225 331.541752,107.903225 C327.997521,99.7033829 325.874225,90.9603001 325.262752,82.048225 C324.635752,71.560225 319.934752,66.304225 310.255752,64.790225 C298.377752,62.933225 289.113752,66.603225 284.831752,78.626225 C281.570752,87.779225 281.661752,97.711225 277.479752,106.832225 C264.145752,135.913225 239.598752,154.261225 205.706752,153.975225 C177.201752,153.735225 144.250752,136.055225 136.606752,105.112225 C128.237752,71.212225 101.184752,63.846225 74.2767516,54.565225 C51.4767516,46.701225 28.7717516,38.565225 6.05175161,30.477225 C1.40875161,28.824225 -1.24024839,25.203225 0.577751608,20.521225 C2.75875161,14.905225 7.33275161,17.146225 11.3637516,18.616225 C45.5167516,31.067225 79.7517516,43.300225 113.797752,56.037225 C125.523752,60.425225 132.220752,52.868225 136.337752,45.392225 C159.697752,2.97122504 194.788752,-10.117775 239.455752,8.11222504 C241.035752,8.75322504 242.635752,9.33522504 245.038752,10.464225 Z" id="Path_3980" fill="#000000"></path>
            <g id="Group_35" transform="translate(171.358631, 31.937414)" fill="#FFFFFF">
                <g id="Group_33" transform="translate(0.000000, -0.000000)">
                    <path d="M0.616120674,23.8898106 C-0.211879326,23.5898106 1.64612067,23.9518106 0.533120674,24.2898106 C-6.09787933,26.2728106 51.2231207,77.1108106 56.2851207,72.7978106 C59.2161207,70.2938106 6.76412067,26.4718106 0.616120674,23.8898106 Z" id="Path_3981"></path>
                    <path d="M20.9681207,0.111810603 C20.1401207,-0.188189397 21.9981207,0.173810603 20.8851207,0.511810603 C14.2531207,2.4938106 71.5751207,53.3318106 76.6371207,49.0198106 C79.5711207,46.5158106 27.1161207,2.6938106 20.9681207,0.111810603 Z" id="Path_3982"></path>
                </g>
                <g id="Group_34" transform="translate(195.313845, -0.000000)">
                    <path d="M0.616275399,23.8898106 C-0.212724601,23.5898106 1.6462754,23.9518106 0.533275399,24.2898106 C-6.0987246,26.2728106 51.2222754,77.1108106 56.2852754,72.7978106 C59.2192754,70.2938106 6.7672754,26.4718106 0.616275399,23.8898106 Z" id="Path_3983"></path>
                    <path d="M20.9722754,0.111810603 C20.1432754,-0.188189397 22.0012754,0.173810603 20.8892754,0.511810603 C14.2572754,2.4938106 71.5782754,53.3318106 76.6412754,49.0198106 C79.5752754,46.5158106 27.1232754,2.6938106 20.9722754,0.111810603 Z" id="Path_3984"></path>
                </g>
            </g>
        </g>
    </g>
</svg>