<?xml version="1.0" encoding="UTF-8"?>
<svg width="510px" height="165px" viewBox="0 0 510 165" version="1.1" xmlns="http://www.w3.org/2000/svg" xmlns:xlink="http://www.w3.org/1999/xlink">
    <title>Eyes/23</title>
    <g id="Eyes/23" stroke="none" stroke-width="1" fill="none" fill-rule="evenodd">
        <g id="Eyes/12" transform="translate(196.166158, 80.372420)" fill="#000000" fill-rule="nonzero">
            <g id="Group_31" transform="translate(15.526229, 41.839500)">
                <path d="M195.726174,0.294344861 C208.780174,0.623344861 221.093174,1.41534486 233.337174,2.81134486 C236.290174,3.14734486 238.256174,6.13334486 238.324174,9.46134486 C238.392174,12.7893449 236.569174,15.1023449 233.600174,16.4023449 C222.431174,21.2933449 211.579174,24.7023449 199.891174,16.6633449 C193.412174,12.2083449 190.978174,7.99634486 195.726174,0.294344861 Z" id="Path_3972"></path>
                <path d="M39.4641735,1.79934486 C45.8641735,4.62034486 45.1561735,8.41434486 42.4351735,12.4183449 C36.6421735,20.9423449 15.1811735,24.8423449 6.4101735,18.9503449 C1.4221735,15.6003449 -1.5678265,10.9893449 0.858173502,4.97234486 C3.3661735,-1.24565514 8.6131735,-0.612655139 13.6821735,1.41434486 C21.9741735,4.72934486 30.2051735,3.10434486 39.4641735,1.79934486 Z" id="Path_3973"></path>
            </g>
            <g id="Group_32" transform="translate(-0.000000, 0.000000)">
                <path d="M223.457402,30.5798452 C219.271402,21.1488452 213.574402,15.4138452 203.599402,14.9318452 C197.667402,14.6458452 196.599402,9.82584517 194.737402,5.11284517 C196.722402,3.61284517 198.271402,1.44684517 199.996402,1.29684517 C221.144875,-0.395791616 242.39335,-0.431567399 263.547402,1.18984517 C269.579402,1.61284517 272.847402,9.26384517 266.763402,11.6568452 C256.677402,15.6248452 254.246402,24.8678452 248.206402,31.4718452 C240.059402,40.3788452 233.026402,40.5688452 223.457402,30.5798452 Z" id="Path_3974"></path>
                <path d="M33.4724023,0.75384517 C45.6094023,1.40184517 56.5724023,1.68284517 67.4614023,2.69284517 C71.0444023,3.02484517 75.4514023,4.51584517 75.4765564,9.39284517 C75.5074023,15.0468452 70.8554023,14.6028452 67.1244023,14.5478452 C60.8074023,14.4548452 57.3944023,17.2278452 54.6594023,23.1218452 C51.2304023,30.5078452 47.7344023,38.4318452 36.6274023,37.8828452 C26.1554023,37.3648452 21.5154023,30.7378452 18.4834023,22.6898452 C16.3494023,17.0278452 13.5834023,14.2898452 7.54140227,14.5078452 C4.16540227,14.6278452 0.424402267,14.3588452 0.0344022668,9.63684517 C-0.381597733,4.60284517 3.03440227,3.59884517 7.07240227,2.45884517 C15.4074023,0.0978451695 23.7614023,-0.27815483 33.4724023,0.75384517 Z" id="Path_3975"></path>
            </g>
        </g>
        <g id="Eyes/10" transform="translate(20.903959, 7.373573)" fill="#000000" fill-rule="nonzero">
            <path d="M351.2446,17.6886918 C399.1086,-17.3703082 457.6056,2.1236918 475.4446,54.6886918 C486.8786,88.3696918 472.3026,132.930692 431.3076,147.775692 C389.7226,162.833692 353.4796,149.316692 333.0666,111.440692 C328.3526,102.692692 326.3386,92.8056918 325.4906,83.3926918 C324.4526,71.8806918 319.8086,66.2926918 308.8366,64.8666918 C296.3886,63.2466918 288.2946,68.4346918 284.3186,80.1776918 C281.4776,88.5696918 281.3186,97.4346918 277.9606,105.970692 C256.7946,159.747692 188.6806,170.721692 148.9916,128.600692 C140.5016,119.590692 135.8036,107.782692 132.1476,96.0406918 C127.2356,80.2576918 117.6376,70.4916918 101.7216,65.1326918 C70.7516004,54.7056918 40.2456004,42.9036918 9.47360042,31.8796918 C3.82660042,29.8566918 -2.20839958,27.5116918 0.801600418,20.6696918 C3.70160042,14.0696918 9.14060042,18.8286918 13.8566004,20.1696918 C48.1906004,29.8996918 80.1016004,46.3806918 114.4016,56.1216918 C124.8566,59.0906918 133.3576,53.7946918 136.9016,44.9866918 C148.4756,16.2066918 172.0286,2.1416918 199.9106,0.444691804 C234.4576,-1.6553082 262.6286,13.2966918 276.9476,47.6116918 C278.2376,50.7006918 280.0846,53.5586918 281.7176,56.6116918 C296.8896,50.3786918 311.6416,50.8116918 327.2776,57.2386918 C330.9466,41.4526918 339.7156,29.2106918 351.2446,17.6886918 Z M227.9366,137.064692 C252.1836,127.051692 267.9676,109.570692 270.9366,83.2716918 C276.5186,33.8716918 228.8196,0.0116918044 181.6876,18.0326918 C145.3556,31.9236918 129.7876,80.0476918 154.0126,113.165692 C172.3616,138.245692 196.8216,144.447692 227.9366,137.064692 Z M457.4146,43.7716918 C446.3456,27.8396918 432.1866,14.3656918 412.6956,12.7026918 C378.4476,9.7806918 344.4176,24.8686918 338.5166,70.0276918 C334.5976,100.022692 351.2256,124.268692 376.1166,135.736692 C398.4376,146.020692 431.6046,138.410692 446.3066,122.817692 C468.7316,99.0346918 471.5536,67.4226918 457.4146,43.7716918 L457.4146,43.7716918 Z" id="Path_3978"></path>
        </g>
    </g>
</svg>