<?xml version="1.0" encoding="UTF-8"?>
<svg width="510px" height="165px" viewBox="0 0 510 165" version="1.1" xmlns="http://www.w3.org/2000/svg" xmlns:xlink="http://www.w3.org/1999/xlink">
    <title>Eyes/24</title>
    <g id="Eyes/24" stroke="none" stroke-width="1" fill="none" fill-rule="evenodd">
        <g id="Eyes/13" transform="translate(214.773026, 73.862931)" fill="#000000" fill-rule="nonzero">
            <path d="M194.474534,1.80333392 C207.528534,2.13233392 219.841534,2.92433392 232.085534,4.31933392 C235.038534,4.65633392 237.005534,7.64233392 237.073534,10.9703339 C237.141534,14.2983339 235.317534,16.6113339 232.348534,17.9113339 C221.179534,22.8023339 210.327534,26.2113339 198.639534,18.1723339 C192.163534,13.7173339 189.731534,9.50533392 194.474534,1.80333392 Z" id="Path_3970"></path>
            <path d="M39.9735336,4.51633392 C46.1125336,7.86833392 45.0865336,11.5893339 42.0365336,15.3493339 C35.5445336,23.3493339 13.8305336,25.4273339 5.5885336,18.8153339 C0.900533604,15.0553339 -1.6884664,10.2083339 1.2375336,4.41533392 C4.2615336,-1.56966608 9.4375336,-0.494666085 14.3165336,1.95233392 C22.2985336,5.96333392 30.6365336,5.03533392 39.9735336,4.51633392 Z" id="Path_3971"></path>
        </g>
        <g id="Eyes/10" transform="translate(20.903959, 7.373573)" fill="#000000" fill-rule="nonzero">
            <path d="M351.2446,17.6886918 C399.1086,-17.3703082 457.6056,2.1236918 475.4446,54.6886918 C486.8786,88.3696918 472.3026,132.930692 431.3076,147.775692 C389.7226,162.833692 353.4796,149.316692 333.0666,111.440692 C328.3526,102.692692 326.3386,92.8056918 325.4906,83.3926918 C324.4526,71.8806918 319.8086,66.2926918 308.8366,64.8666918 C296.3886,63.2466918 288.2946,68.4346918 284.3186,80.1776918 C281.4776,88.5696918 281.3186,97.4346918 277.9606,105.970692 C256.7946,159.747692 188.6806,170.721692 148.9916,128.600692 C140.5016,119.590692 135.8036,107.782692 132.1476,96.0406918 C127.2356,80.2576918 117.6376,70.4916918 101.7216,65.1326918 C70.7516004,54.7056918 40.2456004,42.9036918 9.47360042,31.8796918 C3.82660042,29.8566918 -2.20839958,27.5116918 0.801600418,20.6696918 C3.70160042,14.0696918 9.14060042,18.8286918 13.8566004,20.1696918 C48.1906004,29.8996918 80.1016004,46.3806918 114.4016,56.1216918 C124.8566,59.0906918 133.3576,53.7946918 136.9016,44.9866918 C148.4756,16.2066918 172.0286,2.1416918 199.9106,0.444691804 C234.4576,-1.6553082 262.6286,13.2966918 276.9476,47.6116918 C278.2376,50.7006918 280.0846,53.5586918 281.7176,56.6116918 C296.8896,50.3786918 311.6416,50.8116918 327.2776,57.2386918 C330.9466,41.4526918 339.7156,29.2106918 351.2446,17.6886918 Z M227.9366,137.064692 C252.1836,127.051692 267.9676,109.570692 270.9366,83.2716918 C276.5186,33.8716918 228.8196,0.0116918044 181.6876,18.0326918 C145.3556,31.9236918 129.7876,80.0476918 154.0126,113.165692 C172.3616,138.245692 196.8216,144.447692 227.9366,137.064692 Z M457.4146,43.7716918 C446.3456,27.8396918 432.1866,14.3656918 412.6956,12.7026918 C378.4476,9.7806918 344.4176,24.8686918 338.5166,70.0276918 C334.5976,100.022692 351.2256,124.268692 376.1166,135.736692 C398.4376,146.020692 431.6046,138.410692 446.3066,122.817692 C468.7316,99.0346918 471.5536,67.4226918 457.4146,43.7716918 L457.4146,43.7716918 Z" id="Path_3978"></path>
        </g>
    </g>
</svg>