<?xml version="1.0" encoding="UTF-8"?>
<svg width="510px" height="165px" viewBox="0 0 510 165" version="1.1" xmlns="http://www.w3.org/2000/svg" xmlns:xlink="http://www.w3.org/1999/xlink">
    <title>Eyes/25</title>
    <g id="Eyes/25" stroke="none" stroke-width="1" fill="none" fill-rule="evenodd">
        <g id="Eyes/14" transform="translate(213.499002, 52.555986)" fill="#000000" fill-rule="nonzero">
            <g id="Group_29" transform="translate(-0.000000, 64.461279)">
                <path d="M193.919558,5.489 C206.973558,5.818 219.286558,6.61 231.530558,8.006 C234.483558,8.342 236.449558,11.328 236.517558,14.656 C236.585558,17.984 234.762558,20.297 231.793558,21.597 C220.624558,26.488 209.772558,29.897 198.084558,21.858 C191.605558,17.403 189.171558,13.191 193.919558,5.489 Z" id="Path_3966"></path>
                <path d="M34.0535576,-2.27373675e-13 C41.0485576,-2.27373675e-13 41.9315576,3.757 41.0535576,8.518 C39.1925576,18.655 21.1295576,30.882 10.7265576,29.03 C4.81055755,27.977 0.214557552,24.964 0.00655755162,18.48 C-0.207442448,11.78 4.84955755,10.241 10.3065576,10.05 C19.2325576,9.738 26.1055576,4.93 34.0535576,-2.27373675e-13 Z" id="Path_3967"></path>
            </g>
            <g id="Group_30" transform="translate(0.176582, 0.000000)">
                <path d="M1.45297513,24.0792787 C6.43997513,12.0412787 10.3429751,-5.3207213 25.5379751,1.5642787 C46.2169751,10.9372787 39.3959751,32.2902787 35.2139751,48.9252787 C33.6359751,55.2022787 20.6939751,64.8372787 16.9599751,63.2812787 C0.671975128,56.4902787 -2.30502487,41.5392787 1.45297513,24.0792787 Z" id="Path_3968"></path>
                <path d="M228.281975,60.8702787 C219.706975,68.3262787 211.312975,68.4702787 206.140975,59.3702787 C197.028975,43.3312787 197.527975,26.5452787 209.464975,12.1302787 C211.958975,9.1192787 223.217975,8.5002787 225.739975,11.1882787 C239.682975,26.0492787 240.283975,42.9042787 228.281975,60.8702787 Z" id="Path_3969"></path>
            </g>
        </g>
        <g id="Eyes/10" transform="translate(20.903959, 7.373573)" fill="#000000" fill-rule="nonzero">
            <path d="M351.2446,17.6886918 C399.1086,-17.3703082 457.6056,2.1236918 475.4446,54.6886918 C486.8786,88.3696918 472.3026,132.930692 431.3076,147.775692 C389.7226,162.833692 353.4796,149.316692 333.0666,111.440692 C328.3526,102.692692 326.3386,92.8056918 325.4906,83.3926918 C324.4526,71.8806918 319.8086,66.2926918 308.8366,64.8666918 C296.3886,63.2466918 288.2946,68.4346918 284.3186,80.1776918 C281.4776,88.5696918 281.3186,97.4346918 277.9606,105.970692 C256.7946,159.747692 188.6806,170.721692 148.9916,128.600692 C140.5016,119.590692 135.8036,107.782692 132.1476,96.0406918 C127.2356,80.2576918 117.6376,70.4916918 101.7216,65.1326918 C70.7516004,54.7056918 40.2456004,42.9036918 9.47360042,31.8796918 C3.82660042,29.8566918 -2.20839958,27.5116918 0.801600418,20.6696918 C3.70160042,14.0696918 9.14060042,18.8286918 13.8566004,20.1696918 C48.1906004,29.8996918 80.1016004,46.3806918 114.4016,56.1216918 C124.8566,59.0906918 133.3576,53.7946918 136.9016,44.9866918 C148.4756,16.2066918 172.0286,2.1416918 199.9106,0.444691804 C234.4576,-1.6553082 262.6286,13.2966918 276.9476,47.6116918 C278.2376,50.7006918 280.0846,53.5586918 281.7176,56.6116918 C296.8896,50.3786918 311.6416,50.8116918 327.2776,57.2386918 C330.9466,41.4526918 339.7156,29.2106918 351.2446,17.6886918 Z M227.9366,137.064692 C252.1836,127.051692 267.9676,109.570692 270.9366,83.2716918 C276.5186,33.8716918 228.8196,0.0116918044 181.6876,18.0326918 C145.3556,31.9236918 129.7876,80.0476918 154.0126,113.165692 C172.3616,138.245692 196.8216,144.447692 227.9366,137.064692 Z M457.4146,43.7716918 C446.3456,27.8396918 432.1866,14.3656918 412.6956,12.7026918 C378.4476,9.7806918 344.4176,24.8686918 338.5166,70.0276918 C334.5976,100.022692 351.2256,124.268692 376.1166,135.736692 C398.4376,146.020692 431.6046,138.410692 446.3066,122.817692 C468.7316,99.0346918 471.5536,67.4226918 457.4146,43.7716918 L457.4146,43.7716918 Z" id="Path_3978"></path>
        </g>
    </g>
</svg>