<?xml version="1.0" encoding="UTF-8"?>
<svg width="510px" height="165px" viewBox="0 0 510 165" version="1.1" xmlns="http://www.w3.org/2000/svg" xmlns:xlink="http://www.w3.org/1999/xlink">
    <title>Eyes/27</title>
    <g id="Eyes/27" stroke="none" stroke-width="1" fill="none" fill-rule="evenodd">
        <g id="Eyes/11" transform="translate(195.172158, 80.372420)" fill="#000000" fill-rule="nonzero">
            <path d="M224.451402,30.5798452 C220.265402,21.1488452 214.568402,15.4138452 204.593402,14.9318452 C198.661402,14.6458452 197.593402,9.82584517 195.731402,5.11284517 C197.716402,3.61284517 199.265402,1.44684517 200.990402,1.29684517 C222.138875,-0.395791616 243.38735,-0.431567399 264.541402,1.18984517 C270.573402,1.61284517 273.841402,9.26384517 267.757402,11.6568452 C257.671402,15.6248452 255.240402,24.8678452 249.200402,31.4718452 C241.053402,40.3788452 234.020402,40.5688452 224.451402,30.5798452 Z" id="Path_3976"></path>
            <path d="M33.4724023,1.06784517 C45.6094023,1.71684517 56.5724023,1.99684517 67.4614023,3.00684517 C71.0434023,3.33884517 75.4514023,4.82984517 75.4765467,9.70684517 C75.5064023,15.3608452 70.8554023,14.9168452 67.1244023,14.8618452 C60.8074023,14.7698452 57.3944023,17.5418452 54.6584023,23.4358452 C51.2304023,30.8228452 47.7334023,38.7458452 36.6274023,38.1968452 C26.1554023,37.6788452 21.5154023,31.0518452 18.4834023,23.0048452 C16.3494023,17.3418452 13.5834023,14.6048452 7.54140227,14.8218452 C4.16540227,14.9418452 0.424402267,14.6728452 0.0344022668,9.95084517 C-0.381597733,4.91784517 3.03440227,3.91284517 7.07240227,2.77284517 C15.4074023,0.41584517 23.7614023,0.0388451695 33.4724023,1.06784517 Z" id="Path_3977"></path>
        </g>
    </g>
</svg>