<?xml version="1.0" encoding="UTF-8"?>
<svg width="510px" height="165px" viewBox="0 0 510 165" version="1.1" xmlns="http://www.w3.org/2000/svg" xmlns:xlink="http://www.w3.org/1999/xlink">
    <title>Eyes/28</title>
    <g id="Eyes/28" stroke="none" stroke-width="1" fill="none" fill-rule="evenodd">
        <g id="Eyes/12" transform="translate(196.166158, 80.372420)" fill="#000000" fill-rule="nonzero">
            <g id="Group_31" transform="translate(15.526229, 41.839500)">
                <path d="M195.726174,0.294344861 C208.780174,0.623344861 221.093174,1.41534486 233.337174,2.81134486 C236.290174,3.14734486 238.256174,6.13334486 238.324174,9.46134486 C238.392174,12.7893449 236.569174,15.1023449 233.600174,16.4023449 C222.431174,21.2933449 211.579174,24.7023449 199.891174,16.6633449 C193.412174,12.2083449 190.978174,7.99634486 195.726174,0.294344861 Z" id="Path_3972"></path>
                <path d="M39.4641735,1.79934486 C45.8641735,4.62034486 45.1561735,8.41434486 42.4351735,12.4183449 C36.6421735,20.9423449 15.1811735,24.8423449 6.4101735,18.9503449 C1.4221735,15.6003449 -1.5678265,10.9893449 0.858173502,4.97234486 C3.3661735,-1.24565514 8.6131735,-0.612655139 13.6821735,1.41434486 C21.9741735,4.72934486 30.2051735,3.10434486 39.4641735,1.79934486 Z" id="Path_3973"></path>
            </g>
            <g id="Group_32" transform="translate(-0.000000, 0.000000)">
                <path d="M223.457402,30.5798452 C219.271402,21.1488452 213.574402,15.4138452 203.599402,14.9318452 C197.667402,14.6458452 196.599402,9.82584517 194.737402,5.11284517 C196.722402,3.61284517 198.271402,1.44684517 199.996402,1.29684517 C221.144875,-0.395791616 242.39335,-0.431567399 263.547402,1.18984517 C269.579402,1.61284517 272.847402,9.26384517 266.763402,11.6568452 C256.677402,15.6248452 254.246402,24.8678452 248.206402,31.4718452 C240.059402,40.3788452 233.026402,40.5688452 223.457402,30.5798452 Z" id="Path_3974"></path>
                <path d="M33.4724023,0.75384517 C45.6094023,1.40184517 56.5724023,1.68284517 67.4614023,2.69284517 C71.0444023,3.02484517 75.4514023,4.51584517 75.4765564,9.39284517 C75.5074023,15.0468452 70.8554023,14.6028452 67.1244023,14.5478452 C60.8074023,14.4548452 57.3944023,17.2278452 54.6594023,23.1218452 C51.2304023,30.5078452 47.7344023,38.4318452 36.6274023,37.8828452 C26.1554023,37.3648452 21.5154023,30.7378452 18.4834023,22.6898452 C16.3494023,17.0278452 13.5834023,14.2898452 7.54140227,14.5078452 C4.16540227,14.6278452 0.424402267,14.3588452 0.0344022668,9.63684517 C-0.381597733,4.60284517 3.03440227,3.59884517 7.07240227,2.45884517 C15.4074023,0.0978451695 23.7614023,-0.27815483 33.4724023,0.75384517 Z" id="Path_3975"></path>
            </g>
        </g>
    </g>
</svg>