<?xml version="1.0" encoding="UTF-8"?>
<svg width="510px" height="165px" viewBox="0 0 510 165" version="1.1" xmlns="http://www.w3.org/2000/svg" xmlns:xlink="http://www.w3.org/1999/xlink">
    <title>Eyes/29</title>
    <g id="Eyes/29" stroke="none" stroke-width="1" fill="none" fill-rule="evenodd">
        <g id="Eyes/13" transform="translate(214.773026, 73.862931)" fill="#000000" fill-rule="nonzero">
            <path d="M194.474534,1.80333392 C207.528534,2.13233392 219.841534,2.92433392 232.085534,4.31933392 C235.038534,4.65633392 237.005534,7.64233392 237.073534,10.9703339 C237.141534,14.2983339 235.317534,16.6113339 232.348534,17.9113339 C221.179534,22.8023339 210.327534,26.2113339 198.639534,18.1723339 C192.163534,13.7173339 189.731534,9.50533392 194.474534,1.80333392 Z" id="Path_3970"></path>
            <path d="M39.9735336,4.51633392 C46.1125336,7.86833392 45.0865336,11.5893339 42.0365336,15.3493339 C35.5445336,23.3493339 13.8305336,25.4273339 5.5885336,18.8153339 C0.900533604,15.0553339 -1.6884664,10.2083339 1.2375336,4.41533392 C4.2615336,-1.56966608 9.4375336,-0.494666085 14.3165336,1.95233392 C22.2985336,5.96333392 30.6365336,5.03533392 39.9735336,4.51633392 Z" id="Path_3971"></path>
        </g>
    </g>
</svg>