<?xml version="1.0" encoding="UTF-8"?>
<svg width="510px" height="165px" viewBox="0 0 510 165" version="1.1" xmlns="http://www.w3.org/2000/svg" xmlns:xlink="http://www.w3.org/1999/xlink">
    <title>Eyes/30</title>
    <g id="Eyes/30" stroke="none" stroke-width="1" fill="none" fill-rule="evenodd">
        <g id="Eyes/14" transform="translate(213.499002, 52.555986)" fill="#000000" fill-rule="nonzero">
            <g id="Group_29" transform="translate(-0.000000, 64.461279)">
                <path d="M193.919558,5.489 C206.973558,5.818 219.286558,6.61 231.530558,8.006 C234.483558,8.342 236.449558,11.328 236.517558,14.656 C236.585558,17.984 234.762558,20.297 231.793558,21.597 C220.624558,26.488 209.772558,29.897 198.084558,21.858 C191.605558,17.403 189.171558,13.191 193.919558,5.489 Z" id="Path_3966"></path>
                <path d="M34.0535576,-2.27373675e-13 C41.0485576,-2.27373675e-13 41.9315576,3.757 41.0535576,8.518 C39.1925576,18.655 21.1295576,30.882 10.7265576,29.03 C4.81055755,27.977 0.214557552,24.964 0.00655755162,18.48 C-0.207442448,11.78 4.84955755,10.241 10.3065576,10.05 C19.2325576,9.738 26.1055576,4.93 34.0535576,-2.27373675e-13 Z" id="Path_3967"></path>
            </g>
            <g id="Group_30" transform="translate(0.176582, 0.000000)">
                <path d="M1.45297513,24.0792787 C6.43997513,12.0412787 10.3429751,-5.3207213 25.5379751,1.5642787 C46.2169751,10.9372787 39.3959751,32.2902787 35.2139751,48.9252787 C33.6359751,55.2022787 20.6939751,64.8372787 16.9599751,63.2812787 C0.671975128,56.4902787 -2.30502487,41.5392787 1.45297513,24.0792787 Z" id="Path_3968"></path>
                <path d="M228.281975,60.8702787 C219.706975,68.3262787 211.312975,68.4702787 206.140975,59.3702787 C197.028975,43.3312787 197.527975,26.5452787 209.464975,12.1302787 C211.958975,9.1192787 223.217975,8.5002787 225.739975,11.1882787 C239.682975,26.0492787 240.283975,42.9042787 228.281975,60.8702787 Z" id="Path_3969"></path>
            </g>
        </g>
    </g>
</svg>