<?xml version="1.0" encoding="UTF-8"?>
<svg width="510px" height="165px" viewBox="0 0 510 165" version="1.1" xmlns="http://www.w3.org/2000/svg" xmlns:xlink="http://www.w3.org/1999/xlink">
    <title>Eyes/5</title>
    <g id="Eyes/5" stroke="none" stroke-width="1" fill="none" fill-rule="evenodd">
        <g id="Eyes/12" transform="translate(196.166158, 80.372420)" fill="#000000" fill-rule="nonzero">
            <g id="Group_31" transform="translate(15.526229, 41.839500)">
                <path d="M195.726174,0.294344861 C208.780174,0.623344861 221.093174,1.41534486 233.337174,2.81134486 C236.290174,3.14734486 238.256174,6.13334486 238.324174,9.46134486 C238.392174,12.7893449 236.569174,15.1023449 233.600174,16.4023449 C222.431174,21.2933449 211.579174,24.7023449 199.891174,16.6633449 C193.412174,12.2083449 190.978174,7.99634486 195.726174,0.294344861 Z" id="Path_3972"></path>
                <path d="M39.4641735,1.79934486 C45.8641735,4.62034486 45.1561735,8.41434486 42.4351735,12.4183449 C36.6421735,20.9423449 15.1811735,24.8423449 6.4101735,18.9503449 C1.4221735,15.6003449 -1.5678265,10.9893449 0.858173502,4.97234486 C3.3661735,-1.24565514 8.6131735,-0.612655139 13.6821735,1.41434486 C21.9741735,4.72934486 30.2051735,3.10434486 39.4641735,1.79934486 Z" id="Path_3973"></path>
            </g>
            <g id="Group_32" transform="translate(-0.000000, 0.000000)">
                <path d="M223.457402,30.5798452 C219.271402,21.1488452 213.574402,15.4138452 203.599402,14.9318452 C197.667402,14.6458452 196.599402,9.82584517 194.737402,5.11284517 C196.722402,3.61284517 198.271402,1.44684517 199.996402,1.29684517 C221.144875,-0.395791616 242.39335,-0.431567399 263.547402,1.18984517 C269.579402,1.61284517 272.847402,9.26384517 266.763402,11.6568452 C256.677402,15.6248452 254.246402,24.8678452 248.206402,31.4718452 C240.059402,40.3788452 233.026402,40.5688452 223.457402,30.5798452 Z" id="Path_3974"></path>
                <path d="M33.4724023,0.75384517 C45.6094023,1.40184517 56.5724023,1.68284517 67.4614023,2.69284517 C71.0444023,3.02484517 75.4514023,4.51584517 75.4765564,9.39284517 C75.5074023,15.0468452 70.8554023,14.6028452 67.1244023,14.5478452 C60.8074023,14.4548452 57.3944023,17.2278452 54.6594023,23.1218452 C51.2304023,30.5078452 47.7344023,38.4318452 36.6274023,37.8828452 C26.1554023,37.3648452 21.5154023,30.7378452 18.4834023,22.6898452 C16.3494023,17.0278452 13.5834023,14.2898452 7.54140227,14.5078452 C4.16540227,14.6278452 0.424402267,14.3588452 0.0344022668,9.63684517 C-0.381597733,4.60284517 3.03440227,3.59884517 7.07240227,2.45884517 C15.4074023,0.0978451695 23.7614023,-0.27815483 33.4724023,0.75384517 Z" id="Path_3975"></path>
            </g>
        </g>
        <g id="Eyes/2" transform="translate(1.967560, 1.127598)" fill="#000000" fill-rule="nonzero">
            <path d="M298.488,12.9826666 C359.368,13.3886666 418.973,13.7696666 478.577,14.2516666 C483.252784,14.4063081 487.916509,14.8182648 492.547,15.4856666 C499.663,16.3336666 502.947,19.6726666 504.526,27.5176666 C510.752,58.3666666 507.326,88.5316666 498.249,117.906667 C492.791,135.580667 478.258,145.976667 460.701,151.447667 C437.771,158.591667 414.254,163.823667 390.901,155.347667 C370.162,147.817667 353.725,135.352667 348.046,111.411667 C345.317,99.9046666 339.958,89.2546666 342.289,76.8816666 C343.031,72.9436666 339.202,71.0066666 336.21,69.4816666 C321.22,61.8356666 306.51,69.2906666 303.802,85.9596666 C300.832,104.247667 294.802,121.768667 284.441,136.749667 C267.897,160.663667 242.791,166.133667 215.432,162.896667 C193.885,160.346667 175.268,151.308667 159.232,136.308667 C144.882,122.886667 137.615,106.766667 139.156,87.5136666 C140.056,76.3076666 133.735,71.2136666 125.456,69.8036666 C105.989,66.4846666 88.456,57.6816666 70.405,50.9246666 C55.298,45.2706666 39.679,41.3736666 24.675,35.5586666 C20.418,33.9086666 16.541,33.0586666 17.223,26.6936666 C26.698,22.2716666 34.891,29.9126666 44.791,29.8516666 C42.106,20.8706666 36.513,17.4786666 27.53,17.0806666 C16.756,16.6026666 7.13,12.9036666 7.57306469e-29,3.90566657 C4.774,-0.746333431 9.027,-0.414333431 13.181,0.712666569 C52.156,11.2886666 92.67,13.5126666 131.954,22.6246666 C142.24,25.0096666 153.293,25.0526666 162.994,16.2026666 C169.979,9.82866657 180.818,10.8546666 190.069,10.9426666 C225.788,11.2766666 261.499,12.2476666 298.488,12.9826666 Z M148.388,78.8436666 C151.751,120.554667 175.135,141.828667 211.168,149.837667 C234.741,155.077667 263.441,149.975667 277.978,123.057667 C286.161,107.904667 290.8,91.9176666 294.991,75.4736666 C298.862,60.2806666 309.226,55.4276666 330.632,57.2126666 C344.926,58.4046666 351.508,65.0566666 353.432,79.6776666 C354.875,90.6366666 356.508,101.577667 358.453,112.461667 C360.909,126.209667 377.886,142.785667 391.765,145.570667 C413.104358,149.984196 435.252054,148.353682 455.715,140.862667 C467.695,136.523667 478.62,130.491667 484.392,117.868667 C494.474,95.8196666 497.487,72.5826666 497.171,48.6526666 C496.881,26.7316666 495.556,25.2526666 472.871,25.1626666 C439.243,25.0286666 405.613,25.3086666 371.987,25.0146666 C317.955,24.5436666 263.928,23.5896666 209.896,23.1976666 C196.058,23.0976666 180.457,18.0646666 168.969,27.5976666 C158.954,35.9056666 149,34.8796666 138.09,34.9716666 C131.371,35.0286666 124.912,31.2186666 117.49,33.8256666 C118.811,48.6416666 122.182,61.5916666 139.431,65.0506666 C145.779,66.3206666 149.155,69.8816666 148.384,78.8436666 L148.388,78.8436666 Z M92.472,35.9866666 C89.144,21.2366666 78.753,24.9486666 68.419,25.9236666 C73.374,39.7136666 83.541,44.6656666 96.547,47.4346666 C95.137,43.7416666 93.993,40.7486666 92.468,35.9866666 L92.472,35.9866666 Z" id="Path_3998"></path>
            <path d="M284.937,43.6266666 C284.263,37.6266666 288.065,36.2926666 291.953,36.2806666 C311.026,36.2226666 330.106,36.2966666 349.17,36.7946666 C353.51879,36.8152067 357.611283,38.8548022 360.246,42.3146666 C353.344,50.3726666 306.672,51.6986666 284.937,43.6266666 Z" id="Path_3999"></path>
        </g>
    </g>
</svg>