<?xml version="1.0" encoding="UTF-8"?>
<svg width="510px" height="165px" viewBox="0 0 510 165" version="1.1" xmlns="http://www.w3.org/2000/svg" xmlns:xlink="http://www.w3.org/1999/xlink">
    <title>Eyes/7</title>
    <g id="Eyes/7" stroke="none" stroke-width="1" fill="none" fill-rule="evenodd">
        <g id="Eyes/14" transform="translate(213.499002, 52.555986)" fill="#000000" fill-rule="nonzero">
            <g id="Group_29" transform="translate(-0.000000, 64.461279)">
                <path d="M193.919558,5.489 C206.973558,5.818 219.286558,6.61 231.530558,8.006 C234.483558,8.342 236.449558,11.328 236.517558,14.656 C236.585558,17.984 234.762558,20.297 231.793558,21.597 C220.624558,26.488 209.772558,29.897 198.084558,21.858 C191.605558,17.403 189.171558,13.191 193.919558,5.489 Z" id="Path_3966"></path>
                <path d="M34.0535576,-2.27373675e-13 C41.0485576,-2.27373675e-13 41.9315576,3.757 41.0535576,8.518 C39.1925576,18.655 21.1295576,30.882 10.7265576,29.03 C4.81055755,27.977 0.214557552,24.964 0.00655755162,18.48 C-0.207442448,11.78 4.84955755,10.241 10.3065576,10.05 C19.2325576,9.738 26.1055576,4.93 34.0535576,-2.27373675e-13 Z" id="Path_3967"></path>
            </g>
            <g id="Group_30" transform="translate(0.176582, 0.000000)">
                <path d="M1.45297513,24.0792787 C6.43997513,12.0412787 10.3429751,-5.3207213 25.5379751,1.5642787 C46.2169751,10.9372787 39.3959751,32.2902787 35.2139751,48.9252787 C33.6359751,55.2022787 20.6939751,64.8372787 16.9599751,63.2812787 C0.671975128,56.4902787 -2.30502487,41.5392787 1.45297513,24.0792787 Z" id="Path_3968"></path>
                <path d="M228.281975,60.8702787 C219.706975,68.3262787 211.312975,68.4702787 206.140975,59.3702787 C197.028975,43.3312787 197.527975,26.5452787 209.464975,12.1302787 C211.958975,9.1192787 223.217975,8.5002787 225.739975,11.1882787 C239.682975,26.0492787 240.283975,42.9042787 228.281975,60.8702787 Z" id="Path_3969"></path>
            </g>
        </g>
        <g id="Eyes/2" transform="translate(1.967560, 1.127598)" fill="#000000" fill-rule="nonzero">
            <path d="M298.488,12.9826666 C359.368,13.3886666 418.973,13.7696666 478.577,14.2516666 C483.252784,14.4063081 487.916509,14.8182648 492.547,15.4856666 C499.663,16.3336666 502.947,19.6726666 504.526,27.5176666 C510.752,58.3666666 507.326,88.5316666 498.249,117.906667 C492.791,135.580667 478.258,145.976667 460.701,151.447667 C437.771,158.591667 414.254,163.823667 390.901,155.347667 C370.162,147.817667 353.725,135.352667 348.046,111.411667 C345.317,99.9046666 339.958,89.2546666 342.289,76.8816666 C343.031,72.9436666 339.202,71.0066666 336.21,69.4816666 C321.22,61.8356666 306.51,69.2906666 303.802,85.9596666 C300.832,104.247667 294.802,121.768667 284.441,136.749667 C267.897,160.663667 242.791,166.133667 215.432,162.896667 C193.885,160.346667 175.268,151.308667 159.232,136.308667 C144.882,122.886667 137.615,106.766667 139.156,87.5136666 C140.056,76.3076666 133.735,71.2136666 125.456,69.8036666 C105.989,66.4846666 88.456,57.6816666 70.405,50.9246666 C55.298,45.2706666 39.679,41.3736666 24.675,35.5586666 C20.418,33.9086666 16.541,33.0586666 17.223,26.6936666 C26.698,22.2716666 34.891,29.9126666 44.791,29.8516666 C42.106,20.8706666 36.513,17.4786666 27.53,17.0806666 C16.756,16.6026666 7.13,12.9036666 7.57306469e-29,3.90566657 C4.774,-0.746333431 9.027,-0.414333431 13.181,0.712666569 C52.156,11.2886666 92.67,13.5126666 131.954,22.6246666 C142.24,25.0096666 153.293,25.0526666 162.994,16.2026666 C169.979,9.82866657 180.818,10.8546666 190.069,10.9426666 C225.788,11.2766666 261.499,12.2476666 298.488,12.9826666 Z M148.388,78.8436666 C151.751,120.554667 175.135,141.828667 211.168,149.837667 C234.741,155.077667 263.441,149.975667 277.978,123.057667 C286.161,107.904667 290.8,91.9176666 294.991,75.4736666 C298.862,60.2806666 309.226,55.4276666 330.632,57.2126666 C344.926,58.4046666 351.508,65.0566666 353.432,79.6776666 C354.875,90.6366666 356.508,101.577667 358.453,112.461667 C360.909,126.209667 377.886,142.785667 391.765,145.570667 C413.104358,149.984196 435.252054,148.353682 455.715,140.862667 C467.695,136.523667 478.62,130.491667 484.392,117.868667 C494.474,95.8196666 497.487,72.5826666 497.171,48.6526666 C496.881,26.7316666 495.556,25.2526666 472.871,25.1626666 C439.243,25.0286666 405.613,25.3086666 371.987,25.0146666 C317.955,24.5436666 263.928,23.5896666 209.896,23.1976666 C196.058,23.0976666 180.457,18.0646666 168.969,27.5976666 C158.954,35.9056666 149,34.8796666 138.09,34.9716666 C131.371,35.0286666 124.912,31.2186666 117.49,33.8256666 C118.811,48.6416666 122.182,61.5916666 139.431,65.0506666 C145.779,66.3206666 149.155,69.8816666 148.384,78.8436666 L148.388,78.8436666 Z M92.472,35.9866666 C89.144,21.2366666 78.753,24.9486666 68.419,25.9236666 C73.374,39.7136666 83.541,44.6656666 96.547,47.4346666 C95.137,43.7416666 93.993,40.7486666 92.468,35.9866666 L92.472,35.9866666 Z" id="Path_3998"></path>
            <path d="M284.937,43.6266666 C284.263,37.6266666 288.065,36.2926666 291.953,36.2806666 C311.026,36.2226666 330.106,36.2966666 349.17,36.7946666 C353.51879,36.8152067 357.611283,38.8548022 360.246,42.3146666 C353.344,50.3726666 306.672,51.6986666 284.937,43.6266666 Z" id="Path_3999"></path>
        </g>
    </g>
</svg>